<svg xmlns="http://www.w3.org/2000/svg" xmlns:xlink="http://www.w3.org/1999/xlink" width="317.209" height="219.077" viewBox="0 0 317.209 219.077">
  <defs>
    <filter id="_81f9110d65b31f74ea1ef2b9b82e602e" x="0" y="0" width="317.209" height="219.077" filterUnits="userSpaceOnUse">
      <feOffset dy="2" input="SourceAlpha"/>
      <feGaussianBlur stdDeviation="24" result="blur"/>
      <feFlood flood-opacity="0.039"/>
      <feComposite operator="in" in2="blur"/>
      <feComposite in="SourceGraphic"/>
    </filter>
    <filter id="_81f9110d65b31f74ea1ef2b9b82e602e-2" x="0" y="0" width="317.209" height="219.077" filterUnits="userSpaceOnUse">
      <feOffset dy="2" input="SourceAlpha"/>
      <feGaussianBlur stdDeviation="24" result="blur-2"/>
      <feFlood flood-opacity="0.039"/>
      <feComposite operator="in" in2="blur-2"/>
      <feComposite in="SourceGraphic"/>
    </filter>
    <clipPath id="clip-path">
      <g transform="matrix(1, 0, 0, 1, 0, 0)" filter="url(#_81f9110d65b31f74ea1ef2b9b82e602e)">
        <rect id="_81f9110d65b31f74ea1ef2b9b82e602e-3" data-name="81f9110d65b31f74ea1ef2b9b82e602e" width="173.209" height="75.077" rx="37.539" transform="translate(0)" fill="#333"/>
      </g>
    </clipPath>
  </defs>
  <g id="Group_39961" data-name="Group 39961" transform="translate(-823.444 -533.365)">
    <g transform="matrix(1, 0, 0, 1, 823.44, 533.37)" filter="url(#_81f9110d65b31f74ea1ef2b9b82e602e-2)">
      <rect id="_81f9110d65b31f74ea1ef2b9b82e602e-4" data-name="81f9110d65b31f74ea1ef2b9b82e602e" width="173.209" height="75.077" rx="37.539" transform="translate(72 70)" fill="#333" opacity="0.02"/>
    </g>
    <g id="Mask_Group_18" data-name="Mask Group 18" transform="translate(895.444 603.365)" clip-path="url(#clip-path)">
      <g id="Group_39958" data-name="Group 39958" transform="translate(-14.065 1.351)">
        <g id="Group_39955" data-name="Group 39955" transform="translate(0 0)">
          <g id="Group_39953" data-name="Group 39953" transform="translate(0)">
            <g id="qrcode" opacity="0.08">
              <path id="Path_33879" data-name="Path 33879" d="M38.771,32.255a1.255,1.255,0,0,1-.879-.342,1.069,1.069,0,0,1,0-1.62,1.3,1.3,0,0,1,1.759,0,1.069,1.069,0,0,1,0,1.62A1.255,1.255,0,0,1,38.771,32.255Zm0-9.216a1.255,1.255,0,0,1-.879-.342,1.066,1.066,0,0,1-.371-.81v-2.3a1.066,1.066,0,0,1,.371-.81,1.3,1.3,0,0,1,1.759,0,1.066,1.066,0,0,1,.371.81v2.3a1.066,1.066,0,0,1-.371.81A1.255,1.255,0,0,1,38.771,23.039Zm0-9.216H37.52v1.152a1.066,1.066,0,0,1-.371.81,1.3,1.3,0,0,1-1.759,0,1.066,1.066,0,0,1-.371-.81V13.824h-5v1.152a1.066,1.066,0,0,1-.371.81,1.255,1.255,0,0,1-.879.342H27.515V17.28a1.066,1.066,0,0,1-.371.81,1.3,1.3,0,0,1-1.759,0,1.066,1.066,0,0,1-.371-.81V9.216H21.261a1.255,1.255,0,0,1-.879-.342,1.069,1.069,0,0,1,0-1.62,1.255,1.255,0,0,1,.879-.342h3.752V2.3h-2.5V3.456a1.066,1.066,0,0,1-.371.81,1.3,1.3,0,0,1-1.759,0,1.066,1.066,0,0,1-.371-.81v-2.3a1.066,1.066,0,0,1,.371-.81A1.255,1.255,0,0,1,21.261,0H38.771a1.255,1.255,0,0,1,.879.342,1.066,1.066,0,0,1,.371.81v11.52a1.066,1.066,0,0,1-.371.81A1.255,1.255,0,0,1,38.771,13.824ZM37.52,3.456a1.066,1.066,0,0,0-.371-.81,1.255,1.255,0,0,0-.879-.342h-7.5a1.255,1.255,0,0,0-.879.342,1.066,1.066,0,0,0-.371.81v6.912a1.066,1.066,0,0,0,.371.81,1.255,1.255,0,0,0,.879.342h7.5a1.255,1.255,0,0,0,.879-.342,1.066,1.066,0,0,0,.371-.81Zm-3.752,5.76h-2.5a1.255,1.255,0,0,1-.879-.342,1.066,1.066,0,0,1-.371-.81V5.76a1.066,1.066,0,0,1,.371-.81,1.255,1.255,0,0,1,.879-.342h2.5a1.255,1.255,0,0,1,.879.342,1.066,1.066,0,0,1,.371.81v2.3a1.066,1.066,0,0,1-.371.81A1.255,1.255,0,0,1,33.768,9.216Zm-13.757,2.3h1.251a1.255,1.255,0,0,1,.879.342,1.069,1.069,0,0,1,0,1.62,1.255,1.255,0,0,1-.879.342H17.509v1.152a1.066,1.066,0,0,1-.371.81,1.3,1.3,0,0,1-1.759,0,1.066,1.066,0,0,1-.371-.81V13.824H7.5v2.3h2.5V14.976a1.066,1.066,0,0,1,.371-.81,1.3,1.3,0,0,1,1.759,0,1.066,1.066,0,0,1,.371.81v3.456h1.251a1.255,1.255,0,0,1,.879.342,1.069,1.069,0,0,1,0,1.62,1.255,1.255,0,0,1-.879.342h-2.5a1.255,1.255,0,0,1-.879-.342,1.066,1.066,0,0,1-.371-.81V18.431H6.253a1.339,1.339,0,0,1-.879-.306A.926.926,0,0,1,5,17.388V13.824H2.5v1.26a.926.926,0,0,1-.371.738,1.339,1.339,0,0,1-.879.306,1.339,1.339,0,0,1-.879-.306A.926.926,0,0,1,0,15.084v-2.16a.3.3,0,0,1,.039-.144.07.07,0,0,0-.02-.054A.07.07,0,0,1,0,12.672V1.152A1.066,1.066,0,0,1,.371.342,1.255,1.255,0,0,1,1.251,0H13.757a1.255,1.255,0,0,1,.879.342,1.066,1.066,0,0,1,.371.81V2.3h1.251a1.255,1.255,0,0,1,.879.342,1.069,1.069,0,0,1,0,1.62,1.255,1.255,0,0,1-.879.342H15.008v2.3h1.251a1.255,1.255,0,0,1,.879.342,1.069,1.069,0,0,1,0,1.62,1.255,1.255,0,0,1-.879.342H15.008v2.3h2.5V10.368a1.066,1.066,0,0,1,.371-.81,1.3,1.3,0,0,1,1.759,0,1.066,1.066,0,0,1,.371.81Zm-7.5-8.064a1.066,1.066,0,0,0-.371-.81,1.255,1.255,0,0,0-.879-.342h-7.5a1.255,1.255,0,0,0-.879.342,1.066,1.066,0,0,0-.371.81v6.912a1.066,1.066,0,0,0,.371.81,1.255,1.255,0,0,0,.879.342h7.5a1.255,1.255,0,0,0,.879-.342,1.066,1.066,0,0,0,.371-.81ZM8.755,9.216h-2.5a1.255,1.255,0,0,1-.879-.342A1.066,1.066,0,0,1,5,8.064V5.76a1.066,1.066,0,0,1,.371-.81,1.255,1.255,0,0,1,.879-.342h2.5a1.255,1.255,0,0,1,.879.342,1.066,1.066,0,0,1,.371.81v2.3a1.066,1.066,0,0,1-.371.81A1.255,1.255,0,0,1,8.755,9.216Zm-7.5,9.216a1.255,1.255,0,0,1,.879.342,1.069,1.069,0,0,1,0,1.62,1.255,1.255,0,0,1-.879.342,1.255,1.255,0,0,1-.879-.342,1.069,1.069,0,0,1,0-1.62A1.255,1.255,0,0,1,1.251,18.431Zm17.509,2.3a1.255,1.255,0,0,1-.879-.342,1.069,1.069,0,0,1,0-1.62,1.3,1.3,0,0,1,1.759,0,1.069,1.069,0,0,1,0,1.62A1.255,1.255,0,0,1,18.76,20.735Zm2.5-4.608a1.255,1.255,0,0,1,.879.342,1.069,1.069,0,0,1,0,1.62,1.3,1.3,0,0,1-1.759,0,1.069,1.069,0,0,1,0-1.62A1.255,1.255,0,0,1,21.261,16.128Zm8.755,1.152a1.066,1.066,0,0,1,.371-.81,1.3,1.3,0,0,1,1.759,0,1.069,1.069,0,0,1,0,1.62,1.3,1.3,0,0,1-1.759,0A1.066,1.066,0,0,1,30.016,17.28ZM1.251,23.039H5V21.887a1.066,1.066,0,0,1,.371-.81,1.3,1.3,0,0,1,1.759,0,1.066,1.066,0,0,1,.371.81v1.152h6.253a1.255,1.255,0,0,1,.879.342,1.066,1.066,0,0,1,.371.81v-2.3a1.066,1.066,0,0,1,.371-.81,1.3,1.3,0,0,1,1.759,0,1.066,1.066,0,0,1,.371.81v2.3h5v-2.3a1.066,1.066,0,0,1,.371-.81,1.255,1.255,0,0,1,.879-.342h8.755V19.583a1.066,1.066,0,0,1,.371-.81,1.3,1.3,0,0,1,1.759,0,1.066,1.066,0,0,1,.371.81v5.76h1.251a1.255,1.255,0,0,1,.879.342,1.069,1.069,0,0,1,0,1.62,1.255,1.255,0,0,1-.879.342H35.019V31.1a1.066,1.066,0,0,1-.371.81,1.255,1.255,0,0,1-.879.342H30.016v3.456a1.066,1.066,0,0,1-.371.81,1.3,1.3,0,0,1-1.759,0,1.066,1.066,0,0,1-.371-.81V32.255h-2.5v1.152a1.066,1.066,0,0,1-.371.81,1.3,1.3,0,0,1-1.759,0,1.066,1.066,0,0,1-.371-.81V32.255H21.261a1.255,1.255,0,0,1-.879-.342,1.069,1.069,0,0,1,0-1.62,1.255,1.255,0,0,1,.879-.342h1.251V26.5h-7.5v5.76h1.251a1.255,1.255,0,0,1,.879.342,1.069,1.069,0,0,1,0,1.62,1.255,1.255,0,0,1-.879.342H15.008v1.152a1.066,1.066,0,0,1-.371.81,1.255,1.255,0,0,1-.879.342H1.251a1.255,1.255,0,0,1-.879-.342A1.066,1.066,0,0,1,0,35.711V24.191a1.066,1.066,0,0,1,.371-.81A1.255,1.255,0,0,1,1.251,23.039Zm25.013,6.912h5a1.255,1.255,0,0,0,.879-.342,1.066,1.066,0,0,0,.371-.81V24.191a1.066,1.066,0,0,0-.371-.81,1.255,1.255,0,0,0-.879-.342h-5a1.255,1.255,0,0,0-.879.342,1.066,1.066,0,0,0-.371.81V28.8a1.066,1.066,0,0,0,.371.81A1.255,1.255,0,0,0,26.264,29.951ZM2.5,33.407a1.066,1.066,0,0,0,.371.81,1.255,1.255,0,0,0,.879.342h7.5a1.255,1.255,0,0,0,.879-.342,1.066,1.066,0,0,0,.371-.81V26.5a1.066,1.066,0,0,0-.371-.81,1.255,1.255,0,0,0-.879-.342h-7.5a1.255,1.255,0,0,0-.879.342,1.066,1.066,0,0,0-.371.81Zm3.752-5.76h2.5a1.255,1.255,0,0,1,.879.342,1.066,1.066,0,0,1,.371.81v2.3a1.066,1.066,0,0,1-.371.81,1.255,1.255,0,0,1-.879.342h-2.5a1.255,1.255,0,0,1-.879-.342A1.066,1.066,0,0,1,5,31.1V28.8a1.066,1.066,0,0,1,.371-.81A1.255,1.255,0,0,1,6.253,27.647Zm22.512-2.3a1.255,1.255,0,0,1,.879.342,1.069,1.069,0,0,1,0,1.62,1.3,1.3,0,0,1-1.759,0,1.069,1.069,0,0,1,0-1.62A1.255,1.255,0,0,1,28.765,25.343Zm-10.005,2.3a1.255,1.255,0,0,1,.879.342,1.069,1.069,0,0,1,0,1.62,1.3,1.3,0,0,1-1.759,0,1.069,1.069,0,0,1,0-1.62A1.255,1.255,0,0,1,18.76,27.647Zm2.5,6.912a1.255,1.255,0,0,1,.879.342,1.069,1.069,0,0,1,0,1.62,1.3,1.3,0,0,1-1.759,0,1.069,1.069,0,0,1,0-1.62A1.255,1.255,0,0,1,21.261,34.559Zm12.507,0h1.251V33.407a1.066,1.066,0,0,1,.371-.81,1.3,1.3,0,0,1,1.759,0,1.066,1.066,0,0,1,.371.81v1.152h1.251a1.255,1.255,0,0,1,.879.342,1.069,1.069,0,0,1,0,1.62,1.255,1.255,0,0,1-.879.342h-5a1.255,1.255,0,0,1-.879-.342,1.069,1.069,0,0,1,0-1.62A1.255,1.255,0,0,1,33.768,34.559Z" transform="translate(0)"/>
            </g>
            <g id="qrcode-2" data-name="qrcode" transform="translate(44.97)" opacity="0.08">
              <path id="Path_33879-2" data-name="Path 33879" d="M38.771,32.255a1.255,1.255,0,0,1-.879-.342,1.069,1.069,0,0,1,0-1.62,1.3,1.3,0,0,1,1.759,0,1.069,1.069,0,0,1,0,1.62A1.255,1.255,0,0,1,38.771,32.255Zm0-9.216a1.255,1.255,0,0,1-.879-.342,1.066,1.066,0,0,1-.371-.81v-2.3a1.066,1.066,0,0,1,.371-.81,1.3,1.3,0,0,1,1.759,0,1.066,1.066,0,0,1,.371.81v2.3a1.066,1.066,0,0,1-.371.81A1.255,1.255,0,0,1,38.771,23.039Zm0-9.216H37.52v1.152a1.066,1.066,0,0,1-.371.81,1.3,1.3,0,0,1-1.759,0,1.066,1.066,0,0,1-.371-.81V13.824h-5v1.152a1.066,1.066,0,0,1-.371.81,1.255,1.255,0,0,1-.879.342H27.515V17.28a1.066,1.066,0,0,1-.371.81,1.3,1.3,0,0,1-1.759,0,1.066,1.066,0,0,1-.371-.81V9.216H21.261a1.255,1.255,0,0,1-.879-.342,1.069,1.069,0,0,1,0-1.62,1.255,1.255,0,0,1,.879-.342h3.752V2.3h-2.5V3.456a1.066,1.066,0,0,1-.371.81,1.3,1.3,0,0,1-1.759,0,1.066,1.066,0,0,1-.371-.81v-2.3a1.066,1.066,0,0,1,.371-.81A1.255,1.255,0,0,1,21.261,0H38.771a1.255,1.255,0,0,1,.879.342,1.066,1.066,0,0,1,.371.81v11.52a1.066,1.066,0,0,1-.371.81A1.255,1.255,0,0,1,38.771,13.824ZM37.52,3.456a1.066,1.066,0,0,0-.371-.81,1.255,1.255,0,0,0-.879-.342h-7.5a1.255,1.255,0,0,0-.879.342,1.066,1.066,0,0,0-.371.81v6.912a1.066,1.066,0,0,0,.371.81,1.255,1.255,0,0,0,.879.342h7.5a1.255,1.255,0,0,0,.879-.342,1.066,1.066,0,0,0,.371-.81Zm-3.752,5.76h-2.5a1.255,1.255,0,0,1-.879-.342,1.066,1.066,0,0,1-.371-.81V5.76a1.066,1.066,0,0,1,.371-.81,1.255,1.255,0,0,1,.879-.342h2.5a1.255,1.255,0,0,1,.879.342,1.066,1.066,0,0,1,.371.81v2.3a1.066,1.066,0,0,1-.371.81A1.255,1.255,0,0,1,33.768,9.216Zm-13.757,2.3h1.251a1.255,1.255,0,0,1,.879.342,1.069,1.069,0,0,1,0,1.62,1.255,1.255,0,0,1-.879.342H17.509v1.152a1.066,1.066,0,0,1-.371.81,1.3,1.3,0,0,1-1.759,0,1.066,1.066,0,0,1-.371-.81V13.824H7.5v2.3h2.5V14.976a1.066,1.066,0,0,1,.371-.81,1.3,1.3,0,0,1,1.759,0,1.066,1.066,0,0,1,.371.81v3.456h1.251a1.255,1.255,0,0,1,.879.342,1.069,1.069,0,0,1,0,1.62,1.255,1.255,0,0,1-.879.342h-2.5a1.255,1.255,0,0,1-.879-.342,1.066,1.066,0,0,1-.371-.81V18.431H6.253a1.339,1.339,0,0,1-.879-.306A.926.926,0,0,1,5,17.388V13.824H2.5v1.26a.926.926,0,0,1-.371.738,1.339,1.339,0,0,1-.879.306,1.339,1.339,0,0,1-.879-.306A.926.926,0,0,1,0,15.084v-2.16a.3.3,0,0,1,.039-.144.07.07,0,0,0-.02-.054A.07.07,0,0,1,0,12.672V1.152A1.066,1.066,0,0,1,.371.342,1.255,1.255,0,0,1,1.251,0H13.757a1.255,1.255,0,0,1,.879.342,1.066,1.066,0,0,1,.371.81V2.3h1.251a1.255,1.255,0,0,1,.879.342,1.069,1.069,0,0,1,0,1.62,1.255,1.255,0,0,1-.879.342H15.008v2.3h1.251a1.255,1.255,0,0,1,.879.342,1.069,1.069,0,0,1,0,1.62,1.255,1.255,0,0,1-.879.342H15.008v2.3h2.5V10.368a1.066,1.066,0,0,1,.371-.81,1.3,1.3,0,0,1,1.759,0,1.066,1.066,0,0,1,.371.81Zm-7.5-8.064a1.066,1.066,0,0,0-.371-.81,1.255,1.255,0,0,0-.879-.342h-7.5a1.255,1.255,0,0,0-.879.342,1.066,1.066,0,0,0-.371.81v6.912a1.066,1.066,0,0,0,.371.81,1.255,1.255,0,0,0,.879.342h7.5a1.255,1.255,0,0,0,.879-.342,1.066,1.066,0,0,0,.371-.81ZM8.755,9.216h-2.5a1.255,1.255,0,0,1-.879-.342A1.066,1.066,0,0,1,5,8.064V5.76a1.066,1.066,0,0,1,.371-.81,1.255,1.255,0,0,1,.879-.342h2.5a1.255,1.255,0,0,1,.879.342,1.066,1.066,0,0,1,.371.81v2.3a1.066,1.066,0,0,1-.371.81A1.255,1.255,0,0,1,8.755,9.216Zm-7.5,9.216a1.255,1.255,0,0,1,.879.342,1.069,1.069,0,0,1,0,1.62,1.255,1.255,0,0,1-.879.342,1.255,1.255,0,0,1-.879-.342,1.069,1.069,0,0,1,0-1.62A1.255,1.255,0,0,1,1.251,18.431Zm17.509,2.3a1.255,1.255,0,0,1-.879-.342,1.069,1.069,0,0,1,0-1.62,1.3,1.3,0,0,1,1.759,0,1.069,1.069,0,0,1,0,1.62A1.255,1.255,0,0,1,18.76,20.735Zm2.5-4.608a1.255,1.255,0,0,1,.879.342,1.069,1.069,0,0,1,0,1.62,1.3,1.3,0,0,1-1.759,0,1.069,1.069,0,0,1,0-1.62A1.255,1.255,0,0,1,21.261,16.128Zm8.755,1.152a1.066,1.066,0,0,1,.371-.81,1.3,1.3,0,0,1,1.759,0,1.069,1.069,0,0,1,0,1.62,1.3,1.3,0,0,1-1.759,0A1.066,1.066,0,0,1,30.016,17.28ZM1.251,23.039H5V21.887a1.066,1.066,0,0,1,.371-.81,1.3,1.3,0,0,1,1.759,0,1.066,1.066,0,0,1,.371.81v1.152h6.253a1.255,1.255,0,0,1,.879.342,1.066,1.066,0,0,1,.371.81v-2.3a1.066,1.066,0,0,1,.371-.81,1.3,1.3,0,0,1,1.759,0,1.066,1.066,0,0,1,.371.81v2.3h5v-2.3a1.066,1.066,0,0,1,.371-.81,1.255,1.255,0,0,1,.879-.342h8.755V19.583a1.066,1.066,0,0,1,.371-.81,1.3,1.3,0,0,1,1.759,0,1.066,1.066,0,0,1,.371.81v5.76h1.251a1.255,1.255,0,0,1,.879.342,1.069,1.069,0,0,1,0,1.62,1.255,1.255,0,0,1-.879.342H35.019V31.1a1.066,1.066,0,0,1-.371.81,1.255,1.255,0,0,1-.879.342H30.016v3.456a1.066,1.066,0,0,1-.371.81,1.3,1.3,0,0,1-1.759,0,1.066,1.066,0,0,1-.371-.81V32.255h-2.5v1.152a1.066,1.066,0,0,1-.371.81,1.3,1.3,0,0,1-1.759,0,1.066,1.066,0,0,1-.371-.81V32.255H21.261a1.255,1.255,0,0,1-.879-.342,1.069,1.069,0,0,1,0-1.62,1.255,1.255,0,0,1,.879-.342h1.251V26.5h-7.5v5.76h1.251a1.255,1.255,0,0,1,.879.342,1.069,1.069,0,0,1,0,1.62,1.255,1.255,0,0,1-.879.342H15.008v1.152a1.066,1.066,0,0,1-.371.81,1.255,1.255,0,0,1-.879.342H1.251a1.255,1.255,0,0,1-.879-.342A1.066,1.066,0,0,1,0,35.711V24.191a1.066,1.066,0,0,1,.371-.81A1.255,1.255,0,0,1,1.251,23.039Zm25.013,6.912h5a1.255,1.255,0,0,0,.879-.342,1.066,1.066,0,0,0,.371-.81V24.191a1.066,1.066,0,0,0-.371-.81,1.255,1.255,0,0,0-.879-.342h-5a1.255,1.255,0,0,0-.879.342,1.066,1.066,0,0,0-.371.81V28.8a1.066,1.066,0,0,0,.371.81A1.255,1.255,0,0,0,26.264,29.951ZM2.5,33.407a1.066,1.066,0,0,0,.371.81,1.255,1.255,0,0,0,.879.342h7.5a1.255,1.255,0,0,0,.879-.342,1.066,1.066,0,0,0,.371-.81V26.5a1.066,1.066,0,0,0-.371-.81,1.255,1.255,0,0,0-.879-.342h-7.5a1.255,1.255,0,0,0-.879.342,1.066,1.066,0,0,0-.371.81Zm3.752-5.76h2.5a1.255,1.255,0,0,1,.879.342,1.066,1.066,0,0,1,.371.81v2.3a1.066,1.066,0,0,1-.371.81,1.255,1.255,0,0,1-.879.342h-2.5a1.255,1.255,0,0,1-.879-.342A1.066,1.066,0,0,1,5,31.1V28.8a1.066,1.066,0,0,1,.371-.81A1.255,1.255,0,0,1,6.253,27.647Zm22.512-2.3a1.255,1.255,0,0,1,.879.342,1.069,1.069,0,0,1,0,1.62,1.3,1.3,0,0,1-1.759,0,1.069,1.069,0,0,1,0-1.62A1.255,1.255,0,0,1,28.765,25.343Zm-10.005,2.3a1.255,1.255,0,0,1,.879.342,1.069,1.069,0,0,1,0,1.62,1.3,1.3,0,0,1-1.759,0,1.069,1.069,0,0,1,0-1.62A1.255,1.255,0,0,1,18.76,27.647Zm2.5,6.912a1.255,1.255,0,0,1,.879.342,1.069,1.069,0,0,1,0,1.62,1.3,1.3,0,0,1-1.759,0,1.069,1.069,0,0,1,0-1.62A1.255,1.255,0,0,1,21.261,34.559Zm12.507,0h1.251V33.407a1.066,1.066,0,0,1,.371-.81,1.3,1.3,0,0,1,1.759,0,1.066,1.066,0,0,1,.371.81v1.152h1.251a1.255,1.255,0,0,1,.879.342,1.069,1.069,0,0,1,0,1.62,1.255,1.255,0,0,1-.879.342h-5a1.255,1.255,0,0,1-.879-.342,1.069,1.069,0,0,1,0-1.62A1.255,1.255,0,0,1,33.768,34.559Z" transform="translate(0)"/>
            </g>
          </g>
          <g id="Group_39954" data-name="Group 39954" transform="translate(0 36.863)">
            <g id="qrcode-3" data-name="qrcode" opacity="0.08">
              <path id="Path_33879-3" data-name="Path 33879" d="M38.771,32.255a1.255,1.255,0,0,1-.879-.342,1.069,1.069,0,0,1,0-1.62,1.3,1.3,0,0,1,1.759,0,1.069,1.069,0,0,1,0,1.62A1.255,1.255,0,0,1,38.771,32.255Zm0-9.216a1.255,1.255,0,0,1-.879-.342,1.066,1.066,0,0,1-.371-.81v-2.3a1.066,1.066,0,0,1,.371-.81,1.3,1.3,0,0,1,1.759,0,1.066,1.066,0,0,1,.371.81v2.3a1.066,1.066,0,0,1-.371.81A1.255,1.255,0,0,1,38.771,23.039Zm0-9.216H37.52v1.152a1.066,1.066,0,0,1-.371.81,1.3,1.3,0,0,1-1.759,0,1.066,1.066,0,0,1-.371-.81V13.824h-5v1.152a1.066,1.066,0,0,1-.371.81,1.255,1.255,0,0,1-.879.342H27.515V17.28a1.066,1.066,0,0,1-.371.81,1.3,1.3,0,0,1-1.759,0,1.066,1.066,0,0,1-.371-.81V9.216H21.261a1.255,1.255,0,0,1-.879-.342,1.069,1.069,0,0,1,0-1.62,1.255,1.255,0,0,1,.879-.342h3.752V2.3h-2.5V3.456a1.066,1.066,0,0,1-.371.81,1.3,1.3,0,0,1-1.759,0,1.066,1.066,0,0,1-.371-.81v-2.3a1.066,1.066,0,0,1,.371-.81A1.255,1.255,0,0,1,21.261,0H38.771a1.255,1.255,0,0,1,.879.342,1.066,1.066,0,0,1,.371.81v11.52a1.066,1.066,0,0,1-.371.81A1.255,1.255,0,0,1,38.771,13.824ZM37.52,3.456a1.066,1.066,0,0,0-.371-.81,1.255,1.255,0,0,0-.879-.342h-7.5a1.255,1.255,0,0,0-.879.342,1.066,1.066,0,0,0-.371.81v6.912a1.066,1.066,0,0,0,.371.81,1.255,1.255,0,0,0,.879.342h7.5a1.255,1.255,0,0,0,.879-.342,1.066,1.066,0,0,0,.371-.81Zm-3.752,5.76h-2.5a1.255,1.255,0,0,1-.879-.342,1.066,1.066,0,0,1-.371-.81V5.76a1.066,1.066,0,0,1,.371-.81,1.255,1.255,0,0,1,.879-.342h2.5a1.255,1.255,0,0,1,.879.342,1.066,1.066,0,0,1,.371.81v2.3a1.066,1.066,0,0,1-.371.81A1.255,1.255,0,0,1,33.768,9.216Zm-13.757,2.3h1.251a1.255,1.255,0,0,1,.879.342,1.069,1.069,0,0,1,0,1.62,1.255,1.255,0,0,1-.879.342H17.509v1.152a1.066,1.066,0,0,1-.371.81,1.3,1.3,0,0,1-1.759,0,1.066,1.066,0,0,1-.371-.81V13.824H7.5v2.3h2.5V14.976a1.066,1.066,0,0,1,.371-.81,1.3,1.3,0,0,1,1.759,0,1.066,1.066,0,0,1,.371.81v3.456h1.251a1.255,1.255,0,0,1,.879.342,1.069,1.069,0,0,1,0,1.62,1.255,1.255,0,0,1-.879.342h-2.5a1.255,1.255,0,0,1-.879-.342,1.066,1.066,0,0,1-.371-.81V18.431H6.253a1.339,1.339,0,0,1-.879-.306A.926.926,0,0,1,5,17.388V13.824H2.5v1.26a.926.926,0,0,1-.371.738,1.339,1.339,0,0,1-.879.306,1.339,1.339,0,0,1-.879-.306A.926.926,0,0,1,0,15.084v-2.16a.3.3,0,0,1,.039-.144.07.07,0,0,0-.02-.054A.07.07,0,0,1,0,12.672V1.152A1.066,1.066,0,0,1,.371.342,1.255,1.255,0,0,1,1.251,0H13.757a1.255,1.255,0,0,1,.879.342,1.066,1.066,0,0,1,.371.81V2.3h1.251a1.255,1.255,0,0,1,.879.342,1.069,1.069,0,0,1,0,1.62,1.255,1.255,0,0,1-.879.342H15.008v2.3h1.251a1.255,1.255,0,0,1,.879.342,1.069,1.069,0,0,1,0,1.62,1.255,1.255,0,0,1-.879.342H15.008v2.3h2.5V10.368a1.066,1.066,0,0,1,.371-.81,1.3,1.3,0,0,1,1.759,0,1.066,1.066,0,0,1,.371.81Zm-7.5-8.064a1.066,1.066,0,0,0-.371-.81,1.255,1.255,0,0,0-.879-.342h-7.5a1.255,1.255,0,0,0-.879.342,1.066,1.066,0,0,0-.371.81v6.912a1.066,1.066,0,0,0,.371.81,1.255,1.255,0,0,0,.879.342h7.5a1.255,1.255,0,0,0,.879-.342,1.066,1.066,0,0,0,.371-.81ZM8.755,9.216h-2.5a1.255,1.255,0,0,1-.879-.342A1.066,1.066,0,0,1,5,8.064V5.76a1.066,1.066,0,0,1,.371-.81,1.255,1.255,0,0,1,.879-.342h2.5a1.255,1.255,0,0,1,.879.342,1.066,1.066,0,0,1,.371.81v2.3a1.066,1.066,0,0,1-.371.81A1.255,1.255,0,0,1,8.755,9.216Zm-7.5,9.216a1.255,1.255,0,0,1,.879.342,1.069,1.069,0,0,1,0,1.62,1.255,1.255,0,0,1-.879.342,1.255,1.255,0,0,1-.879-.342,1.069,1.069,0,0,1,0-1.62A1.255,1.255,0,0,1,1.251,18.431Zm17.509,2.3a1.255,1.255,0,0,1-.879-.342,1.069,1.069,0,0,1,0-1.62,1.3,1.3,0,0,1,1.759,0,1.069,1.069,0,0,1,0,1.62A1.255,1.255,0,0,1,18.76,20.735Zm2.5-4.608a1.255,1.255,0,0,1,.879.342,1.069,1.069,0,0,1,0,1.62,1.3,1.3,0,0,1-1.759,0,1.069,1.069,0,0,1,0-1.62A1.255,1.255,0,0,1,21.261,16.128Zm8.755,1.152a1.066,1.066,0,0,1,.371-.81,1.3,1.3,0,0,1,1.759,0,1.069,1.069,0,0,1,0,1.62,1.3,1.3,0,0,1-1.759,0A1.066,1.066,0,0,1,30.016,17.28ZM1.251,23.039H5V21.887a1.066,1.066,0,0,1,.371-.81,1.3,1.3,0,0,1,1.759,0,1.066,1.066,0,0,1,.371.81v1.152h6.253a1.255,1.255,0,0,1,.879.342,1.066,1.066,0,0,1,.371.81v-2.3a1.066,1.066,0,0,1,.371-.81,1.3,1.3,0,0,1,1.759,0,1.066,1.066,0,0,1,.371.81v2.3h5v-2.3a1.066,1.066,0,0,1,.371-.81,1.255,1.255,0,0,1,.879-.342h8.755V19.583a1.066,1.066,0,0,1,.371-.81,1.3,1.3,0,0,1,1.759,0,1.066,1.066,0,0,1,.371.81v5.76h1.251a1.255,1.255,0,0,1,.879.342,1.069,1.069,0,0,1,0,1.62,1.255,1.255,0,0,1-.879.342H35.019V31.1a1.066,1.066,0,0,1-.371.81,1.255,1.255,0,0,1-.879.342H30.016v3.456a1.066,1.066,0,0,1-.371.81,1.3,1.3,0,0,1-1.759,0,1.066,1.066,0,0,1-.371-.81V32.255h-2.5v1.152a1.066,1.066,0,0,1-.371.81,1.3,1.3,0,0,1-1.759,0,1.066,1.066,0,0,1-.371-.81V32.255H21.261a1.255,1.255,0,0,1-.879-.342,1.069,1.069,0,0,1,0-1.62,1.255,1.255,0,0,1,.879-.342h1.251V26.5h-7.5v5.76h1.251a1.255,1.255,0,0,1,.879.342,1.069,1.069,0,0,1,0,1.62,1.255,1.255,0,0,1-.879.342H15.008v1.152a1.066,1.066,0,0,1-.371.81,1.255,1.255,0,0,1-.879.342H1.251a1.255,1.255,0,0,1-.879-.342A1.066,1.066,0,0,1,0,35.711V24.191a1.066,1.066,0,0,1,.371-.81A1.255,1.255,0,0,1,1.251,23.039Zm25.013,6.912h5a1.255,1.255,0,0,0,.879-.342,1.066,1.066,0,0,0,.371-.81V24.191a1.066,1.066,0,0,0-.371-.81,1.255,1.255,0,0,0-.879-.342h-5a1.255,1.255,0,0,0-.879.342,1.066,1.066,0,0,0-.371.81V28.8a1.066,1.066,0,0,0,.371.81A1.255,1.255,0,0,0,26.264,29.951ZM2.5,33.407a1.066,1.066,0,0,0,.371.81,1.255,1.255,0,0,0,.879.342h7.5a1.255,1.255,0,0,0,.879-.342,1.066,1.066,0,0,0,.371-.81V26.5a1.066,1.066,0,0,0-.371-.81,1.255,1.255,0,0,0-.879-.342h-7.5a1.255,1.255,0,0,0-.879.342,1.066,1.066,0,0,0-.371.81Zm3.752-5.76h2.5a1.255,1.255,0,0,1,.879.342,1.066,1.066,0,0,1,.371.81v2.3a1.066,1.066,0,0,1-.371.81,1.255,1.255,0,0,1-.879.342h-2.5a1.255,1.255,0,0,1-.879-.342A1.066,1.066,0,0,1,5,31.1V28.8a1.066,1.066,0,0,1,.371-.81A1.255,1.255,0,0,1,6.253,27.647Zm22.512-2.3a1.255,1.255,0,0,1,.879.342,1.069,1.069,0,0,1,0,1.62,1.3,1.3,0,0,1-1.759,0,1.069,1.069,0,0,1,0-1.62A1.255,1.255,0,0,1,28.765,25.343Zm-10.005,2.3a1.255,1.255,0,0,1,.879.342,1.069,1.069,0,0,1,0,1.62,1.3,1.3,0,0,1-1.759,0,1.069,1.069,0,0,1,0-1.62A1.255,1.255,0,0,1,18.76,27.647Zm2.5,6.912a1.255,1.255,0,0,1,.879.342,1.069,1.069,0,0,1,0,1.62,1.3,1.3,0,0,1-1.759,0,1.069,1.069,0,0,1,0-1.62A1.255,1.255,0,0,1,21.261,34.559Zm12.507,0h1.251V33.407a1.066,1.066,0,0,1,.371-.81,1.3,1.3,0,0,1,1.759,0,1.066,1.066,0,0,1,.371.81v1.152h1.251a1.255,1.255,0,0,1,.879.342,1.069,1.069,0,0,1,0,1.62,1.255,1.255,0,0,1-.879.342h-5a1.255,1.255,0,0,1-.879-.342,1.069,1.069,0,0,1,0-1.62A1.255,1.255,0,0,1,33.768,34.559Z" transform="translate(0)"/>
            </g>
            <g id="qrcode-4" data-name="qrcode" transform="translate(44.97)" opacity="0.08">
              <path id="Path_33879-4" data-name="Path 33879" d="M38.771,32.255a1.255,1.255,0,0,1-.879-.342,1.069,1.069,0,0,1,0-1.62,1.3,1.3,0,0,1,1.759,0,1.069,1.069,0,0,1,0,1.62A1.255,1.255,0,0,1,38.771,32.255Zm0-9.216a1.255,1.255,0,0,1-.879-.342,1.066,1.066,0,0,1-.371-.81v-2.3a1.066,1.066,0,0,1,.371-.81,1.3,1.3,0,0,1,1.759,0,1.066,1.066,0,0,1,.371.81v2.3a1.066,1.066,0,0,1-.371.81A1.255,1.255,0,0,1,38.771,23.039Zm0-9.216H37.52v1.152a1.066,1.066,0,0,1-.371.81,1.3,1.3,0,0,1-1.759,0,1.066,1.066,0,0,1-.371-.81V13.824h-5v1.152a1.066,1.066,0,0,1-.371.81,1.255,1.255,0,0,1-.879.342H27.515V17.28a1.066,1.066,0,0,1-.371.81,1.3,1.3,0,0,1-1.759,0,1.066,1.066,0,0,1-.371-.81V9.216H21.261a1.255,1.255,0,0,1-.879-.342,1.069,1.069,0,0,1,0-1.62,1.255,1.255,0,0,1,.879-.342h3.752V2.3h-2.5V3.456a1.066,1.066,0,0,1-.371.81,1.3,1.3,0,0,1-1.759,0,1.066,1.066,0,0,1-.371-.81v-2.3a1.066,1.066,0,0,1,.371-.81A1.255,1.255,0,0,1,21.261,0H38.771a1.255,1.255,0,0,1,.879.342,1.066,1.066,0,0,1,.371.81v11.52a1.066,1.066,0,0,1-.371.81A1.255,1.255,0,0,1,38.771,13.824ZM37.52,3.456a1.066,1.066,0,0,0-.371-.81,1.255,1.255,0,0,0-.879-.342h-7.5a1.255,1.255,0,0,0-.879.342,1.066,1.066,0,0,0-.371.81v6.912a1.066,1.066,0,0,0,.371.81,1.255,1.255,0,0,0,.879.342h7.5a1.255,1.255,0,0,0,.879-.342,1.066,1.066,0,0,0,.371-.81Zm-3.752,5.76h-2.5a1.255,1.255,0,0,1-.879-.342,1.066,1.066,0,0,1-.371-.81V5.76a1.066,1.066,0,0,1,.371-.81,1.255,1.255,0,0,1,.879-.342h2.5a1.255,1.255,0,0,1,.879.342,1.066,1.066,0,0,1,.371.81v2.3a1.066,1.066,0,0,1-.371.81A1.255,1.255,0,0,1,33.768,9.216Zm-13.757,2.3h1.251a1.255,1.255,0,0,1,.879.342,1.069,1.069,0,0,1,0,1.62,1.255,1.255,0,0,1-.879.342H17.509v1.152a1.066,1.066,0,0,1-.371.81,1.3,1.3,0,0,1-1.759,0,1.066,1.066,0,0,1-.371-.81V13.824H7.5v2.3h2.5V14.976a1.066,1.066,0,0,1,.371-.81,1.3,1.3,0,0,1,1.759,0,1.066,1.066,0,0,1,.371.81v3.456h1.251a1.255,1.255,0,0,1,.879.342,1.069,1.069,0,0,1,0,1.62,1.255,1.255,0,0,1-.879.342h-2.5a1.255,1.255,0,0,1-.879-.342,1.066,1.066,0,0,1-.371-.81V18.431H6.253a1.339,1.339,0,0,1-.879-.306A.926.926,0,0,1,5,17.388V13.824H2.5v1.26a.926.926,0,0,1-.371.738,1.339,1.339,0,0,1-.879.306,1.339,1.339,0,0,1-.879-.306A.926.926,0,0,1,0,15.084v-2.16a.3.3,0,0,1,.039-.144.07.07,0,0,0-.02-.054A.07.07,0,0,1,0,12.672V1.152A1.066,1.066,0,0,1,.371.342,1.255,1.255,0,0,1,1.251,0H13.757a1.255,1.255,0,0,1,.879.342,1.066,1.066,0,0,1,.371.81V2.3h1.251a1.255,1.255,0,0,1,.879.342,1.069,1.069,0,0,1,0,1.62,1.255,1.255,0,0,1-.879.342H15.008v2.3h1.251a1.255,1.255,0,0,1,.879.342,1.069,1.069,0,0,1,0,1.62,1.255,1.255,0,0,1-.879.342H15.008v2.3h2.5V10.368a1.066,1.066,0,0,1,.371-.81,1.3,1.3,0,0,1,1.759,0,1.066,1.066,0,0,1,.371.81Zm-7.5-8.064a1.066,1.066,0,0,0-.371-.81,1.255,1.255,0,0,0-.879-.342h-7.5a1.255,1.255,0,0,0-.879.342,1.066,1.066,0,0,0-.371.81v6.912a1.066,1.066,0,0,0,.371.81,1.255,1.255,0,0,0,.879.342h7.5a1.255,1.255,0,0,0,.879-.342,1.066,1.066,0,0,0,.371-.81ZM8.755,9.216h-2.5a1.255,1.255,0,0,1-.879-.342A1.066,1.066,0,0,1,5,8.064V5.76a1.066,1.066,0,0,1,.371-.81,1.255,1.255,0,0,1,.879-.342h2.5a1.255,1.255,0,0,1,.879.342,1.066,1.066,0,0,1,.371.81v2.3a1.066,1.066,0,0,1-.371.81A1.255,1.255,0,0,1,8.755,9.216Zm-7.5,9.216a1.255,1.255,0,0,1,.879.342,1.069,1.069,0,0,1,0,1.62,1.255,1.255,0,0,1-.879.342,1.255,1.255,0,0,1-.879-.342,1.069,1.069,0,0,1,0-1.62A1.255,1.255,0,0,1,1.251,18.431Zm17.509,2.3a1.255,1.255,0,0,1-.879-.342,1.069,1.069,0,0,1,0-1.62,1.3,1.3,0,0,1,1.759,0,1.069,1.069,0,0,1,0,1.62A1.255,1.255,0,0,1,18.76,20.735Zm2.5-4.608a1.255,1.255,0,0,1,.879.342,1.069,1.069,0,0,1,0,1.62,1.3,1.3,0,0,1-1.759,0,1.069,1.069,0,0,1,0-1.62A1.255,1.255,0,0,1,21.261,16.128Zm8.755,1.152a1.066,1.066,0,0,1,.371-.81,1.3,1.3,0,0,1,1.759,0,1.069,1.069,0,0,1,0,1.62,1.3,1.3,0,0,1-1.759,0A1.066,1.066,0,0,1,30.016,17.28ZM1.251,23.039H5V21.887a1.066,1.066,0,0,1,.371-.81,1.3,1.3,0,0,1,1.759,0,1.066,1.066,0,0,1,.371.81v1.152h6.253a1.255,1.255,0,0,1,.879.342,1.066,1.066,0,0,1,.371.81v-2.3a1.066,1.066,0,0,1,.371-.81,1.3,1.3,0,0,1,1.759,0,1.066,1.066,0,0,1,.371.81v2.3h5v-2.3a1.066,1.066,0,0,1,.371-.81,1.255,1.255,0,0,1,.879-.342h8.755V19.583a1.066,1.066,0,0,1,.371-.81,1.3,1.3,0,0,1,1.759,0,1.066,1.066,0,0,1,.371.81v5.76h1.251a1.255,1.255,0,0,1,.879.342,1.069,1.069,0,0,1,0,1.62,1.255,1.255,0,0,1-.879.342H35.019V31.1a1.066,1.066,0,0,1-.371.81,1.255,1.255,0,0,1-.879.342H30.016v3.456a1.066,1.066,0,0,1-.371.81,1.3,1.3,0,0,1-1.759,0,1.066,1.066,0,0,1-.371-.81V32.255h-2.5v1.152a1.066,1.066,0,0,1-.371.81,1.3,1.3,0,0,1-1.759,0,1.066,1.066,0,0,1-.371-.81V32.255H21.261a1.255,1.255,0,0,1-.879-.342,1.069,1.069,0,0,1,0-1.62,1.255,1.255,0,0,1,.879-.342h1.251V26.5h-7.5v5.76h1.251a1.255,1.255,0,0,1,.879.342,1.069,1.069,0,0,1,0,1.62,1.255,1.255,0,0,1-.879.342H15.008v1.152a1.066,1.066,0,0,1-.371.81,1.255,1.255,0,0,1-.879.342H1.251a1.255,1.255,0,0,1-.879-.342A1.066,1.066,0,0,1,0,35.711V24.191a1.066,1.066,0,0,1,.371-.81A1.255,1.255,0,0,1,1.251,23.039Zm25.013,6.912h5a1.255,1.255,0,0,0,.879-.342,1.066,1.066,0,0,0,.371-.81V24.191a1.066,1.066,0,0,0-.371-.81,1.255,1.255,0,0,0-.879-.342h-5a1.255,1.255,0,0,0-.879.342,1.066,1.066,0,0,0-.371.81V28.8a1.066,1.066,0,0,0,.371.81A1.255,1.255,0,0,0,26.264,29.951ZM2.5,33.407a1.066,1.066,0,0,0,.371.81,1.255,1.255,0,0,0,.879.342h7.5a1.255,1.255,0,0,0,.879-.342,1.066,1.066,0,0,0,.371-.81V26.5a1.066,1.066,0,0,0-.371-.81,1.255,1.255,0,0,0-.879-.342h-7.5a1.255,1.255,0,0,0-.879.342,1.066,1.066,0,0,0-.371.81Zm3.752-5.76h2.5a1.255,1.255,0,0,1,.879.342,1.066,1.066,0,0,1,.371.81v2.3a1.066,1.066,0,0,1-.371.81,1.255,1.255,0,0,1-.879.342h-2.5a1.255,1.255,0,0,1-.879-.342A1.066,1.066,0,0,1,5,31.1V28.8a1.066,1.066,0,0,1,.371-.81A1.255,1.255,0,0,1,6.253,27.647Zm22.512-2.3a1.255,1.255,0,0,1,.879.342,1.069,1.069,0,0,1,0,1.62,1.3,1.3,0,0,1-1.759,0,1.069,1.069,0,0,1,0-1.62A1.255,1.255,0,0,1,28.765,25.343Zm-10.005,2.3a1.255,1.255,0,0,1,.879.342,1.069,1.069,0,0,1,0,1.62,1.3,1.3,0,0,1-1.759,0,1.069,1.069,0,0,1,0-1.62A1.255,1.255,0,0,1,18.76,27.647Zm2.5,6.912a1.255,1.255,0,0,1,.879.342,1.069,1.069,0,0,1,0,1.62,1.3,1.3,0,0,1-1.759,0,1.069,1.069,0,0,1,0-1.62A1.255,1.255,0,0,1,21.261,34.559Zm12.507,0h1.251V33.407a1.066,1.066,0,0,1,.371-.81,1.3,1.3,0,0,1,1.759,0,1.066,1.066,0,0,1,.371.81v1.152h1.251a1.255,1.255,0,0,1,.879.342,1.069,1.069,0,0,1,0,1.62,1.255,1.255,0,0,1-.879.342h-5a1.255,1.255,0,0,1-.879-.342,1.069,1.069,0,0,1,0-1.62A1.255,1.255,0,0,1,33.768,34.559Z" transform="translate(0)"/>
            </g>
          </g>
        </g>
        <g id="Group_39956" data-name="Group 39956" transform="translate(84.992 0)">
          <g id="Group_39953-2" data-name="Group 39953" transform="translate(0)">
            <g id="qrcode-5" data-name="qrcode" opacity="0.08">
              <path id="Path_33879-5" data-name="Path 33879" d="M38.771,32.255a1.255,1.255,0,0,1-.879-.342,1.069,1.069,0,0,1,0-1.62,1.3,1.3,0,0,1,1.759,0,1.069,1.069,0,0,1,0,1.62A1.255,1.255,0,0,1,38.771,32.255Zm0-9.216a1.255,1.255,0,0,1-.879-.342,1.066,1.066,0,0,1-.371-.81v-2.3a1.066,1.066,0,0,1,.371-.81,1.3,1.3,0,0,1,1.759,0,1.066,1.066,0,0,1,.371.81v2.3a1.066,1.066,0,0,1-.371.81A1.255,1.255,0,0,1,38.771,23.039Zm0-9.216H37.52v1.152a1.066,1.066,0,0,1-.371.81,1.3,1.3,0,0,1-1.759,0,1.066,1.066,0,0,1-.371-.81V13.824h-5v1.152a1.066,1.066,0,0,1-.371.81,1.255,1.255,0,0,1-.879.342H27.515V17.28a1.066,1.066,0,0,1-.371.81,1.3,1.3,0,0,1-1.759,0,1.066,1.066,0,0,1-.371-.81V9.216H21.261a1.255,1.255,0,0,1-.879-.342,1.069,1.069,0,0,1,0-1.62,1.255,1.255,0,0,1,.879-.342h3.752V2.3h-2.5V3.456a1.066,1.066,0,0,1-.371.81,1.3,1.3,0,0,1-1.759,0,1.066,1.066,0,0,1-.371-.81v-2.3a1.066,1.066,0,0,1,.371-.81A1.255,1.255,0,0,1,21.261,0H38.771a1.255,1.255,0,0,1,.879.342,1.066,1.066,0,0,1,.371.81v11.52a1.066,1.066,0,0,1-.371.81A1.255,1.255,0,0,1,38.771,13.824ZM37.52,3.456a1.066,1.066,0,0,0-.371-.81,1.255,1.255,0,0,0-.879-.342h-7.5a1.255,1.255,0,0,0-.879.342,1.066,1.066,0,0,0-.371.81v6.912a1.066,1.066,0,0,0,.371.81,1.255,1.255,0,0,0,.879.342h7.5a1.255,1.255,0,0,0,.879-.342,1.066,1.066,0,0,0,.371-.81Zm-3.752,5.76h-2.5a1.255,1.255,0,0,1-.879-.342,1.066,1.066,0,0,1-.371-.81V5.76a1.066,1.066,0,0,1,.371-.81,1.255,1.255,0,0,1,.879-.342h2.5a1.255,1.255,0,0,1,.879.342,1.066,1.066,0,0,1,.371.81v2.3a1.066,1.066,0,0,1-.371.81A1.255,1.255,0,0,1,33.768,9.216Zm-13.757,2.3h1.251a1.255,1.255,0,0,1,.879.342,1.069,1.069,0,0,1,0,1.62,1.255,1.255,0,0,1-.879.342H17.509v1.152a1.066,1.066,0,0,1-.371.81,1.3,1.3,0,0,1-1.759,0,1.066,1.066,0,0,1-.371-.81V13.824H7.5v2.3h2.5V14.976a1.066,1.066,0,0,1,.371-.81,1.3,1.3,0,0,1,1.759,0,1.066,1.066,0,0,1,.371.81v3.456h1.251a1.255,1.255,0,0,1,.879.342,1.069,1.069,0,0,1,0,1.62,1.255,1.255,0,0,1-.879.342h-2.5a1.255,1.255,0,0,1-.879-.342,1.066,1.066,0,0,1-.371-.81V18.431H6.253a1.339,1.339,0,0,1-.879-.306A.926.926,0,0,1,5,17.388V13.824H2.5v1.26a.926.926,0,0,1-.371.738,1.339,1.339,0,0,1-.879.306,1.339,1.339,0,0,1-.879-.306A.926.926,0,0,1,0,15.084v-2.16a.3.3,0,0,1,.039-.144.07.07,0,0,0-.02-.054A.07.07,0,0,1,0,12.672V1.152A1.066,1.066,0,0,1,.371.342,1.255,1.255,0,0,1,1.251,0H13.757a1.255,1.255,0,0,1,.879.342,1.066,1.066,0,0,1,.371.81V2.3h1.251a1.255,1.255,0,0,1,.879.342,1.069,1.069,0,0,1,0,1.62,1.255,1.255,0,0,1-.879.342H15.008v2.3h1.251a1.255,1.255,0,0,1,.879.342,1.069,1.069,0,0,1,0,1.62,1.255,1.255,0,0,1-.879.342H15.008v2.3h2.5V10.368a1.066,1.066,0,0,1,.371-.81,1.3,1.3,0,0,1,1.759,0,1.066,1.066,0,0,1,.371.81Zm-7.5-8.064a1.066,1.066,0,0,0-.371-.81,1.255,1.255,0,0,0-.879-.342h-7.5a1.255,1.255,0,0,0-.879.342,1.066,1.066,0,0,0-.371.81v6.912a1.066,1.066,0,0,0,.371.81,1.255,1.255,0,0,0,.879.342h7.5a1.255,1.255,0,0,0,.879-.342,1.066,1.066,0,0,0,.371-.81ZM8.755,9.216h-2.5a1.255,1.255,0,0,1-.879-.342A1.066,1.066,0,0,1,5,8.064V5.76a1.066,1.066,0,0,1,.371-.81,1.255,1.255,0,0,1,.879-.342h2.5a1.255,1.255,0,0,1,.879.342,1.066,1.066,0,0,1,.371.81v2.3a1.066,1.066,0,0,1-.371.81A1.255,1.255,0,0,1,8.755,9.216Zm-7.5,9.216a1.255,1.255,0,0,1,.879.342,1.069,1.069,0,0,1,0,1.62,1.255,1.255,0,0,1-.879.342,1.255,1.255,0,0,1-.879-.342,1.069,1.069,0,0,1,0-1.62A1.255,1.255,0,0,1,1.251,18.431Zm17.509,2.3a1.255,1.255,0,0,1-.879-.342,1.069,1.069,0,0,1,0-1.62,1.3,1.3,0,0,1,1.759,0,1.069,1.069,0,0,1,0,1.62A1.255,1.255,0,0,1,18.76,20.735Zm2.5-4.608a1.255,1.255,0,0,1,.879.342,1.069,1.069,0,0,1,0,1.62,1.3,1.3,0,0,1-1.759,0,1.069,1.069,0,0,1,0-1.62A1.255,1.255,0,0,1,21.261,16.128Zm8.755,1.152a1.066,1.066,0,0,1,.371-.81,1.3,1.3,0,0,1,1.759,0,1.069,1.069,0,0,1,0,1.62,1.3,1.3,0,0,1-1.759,0A1.066,1.066,0,0,1,30.016,17.28ZM1.251,23.039H5V21.887a1.066,1.066,0,0,1,.371-.81,1.3,1.3,0,0,1,1.759,0,1.066,1.066,0,0,1,.371.81v1.152h6.253a1.255,1.255,0,0,1,.879.342,1.066,1.066,0,0,1,.371.81v-2.3a1.066,1.066,0,0,1,.371-.81,1.3,1.3,0,0,1,1.759,0,1.066,1.066,0,0,1,.371.81v2.3h5v-2.3a1.066,1.066,0,0,1,.371-.81,1.255,1.255,0,0,1,.879-.342h8.755V19.583a1.066,1.066,0,0,1,.371-.81,1.3,1.3,0,0,1,1.759,0,1.066,1.066,0,0,1,.371.81v5.76h1.251a1.255,1.255,0,0,1,.879.342,1.069,1.069,0,0,1,0,1.62,1.255,1.255,0,0,1-.879.342H35.019V31.1a1.066,1.066,0,0,1-.371.81,1.255,1.255,0,0,1-.879.342H30.016v3.456a1.066,1.066,0,0,1-.371.81,1.3,1.3,0,0,1-1.759,0,1.066,1.066,0,0,1-.371-.81V32.255h-2.5v1.152a1.066,1.066,0,0,1-.371.81,1.3,1.3,0,0,1-1.759,0,1.066,1.066,0,0,1-.371-.81V32.255H21.261a1.255,1.255,0,0,1-.879-.342,1.069,1.069,0,0,1,0-1.62,1.255,1.255,0,0,1,.879-.342h1.251V26.5h-7.5v5.76h1.251a1.255,1.255,0,0,1,.879.342,1.069,1.069,0,0,1,0,1.62,1.255,1.255,0,0,1-.879.342H15.008v1.152a1.066,1.066,0,0,1-.371.81,1.255,1.255,0,0,1-.879.342H1.251a1.255,1.255,0,0,1-.879-.342A1.066,1.066,0,0,1,0,35.711V24.191a1.066,1.066,0,0,1,.371-.81A1.255,1.255,0,0,1,1.251,23.039Zm25.013,6.912h5a1.255,1.255,0,0,0,.879-.342,1.066,1.066,0,0,0,.371-.81V24.191a1.066,1.066,0,0,0-.371-.81,1.255,1.255,0,0,0-.879-.342h-5a1.255,1.255,0,0,0-.879.342,1.066,1.066,0,0,0-.371.81V28.8a1.066,1.066,0,0,0,.371.81A1.255,1.255,0,0,0,26.264,29.951ZM2.5,33.407a1.066,1.066,0,0,0,.371.81,1.255,1.255,0,0,0,.879.342h7.5a1.255,1.255,0,0,0,.879-.342,1.066,1.066,0,0,0,.371-.81V26.5a1.066,1.066,0,0,0-.371-.81,1.255,1.255,0,0,0-.879-.342h-7.5a1.255,1.255,0,0,0-.879.342,1.066,1.066,0,0,0-.371.81Zm3.752-5.76h2.5a1.255,1.255,0,0,1,.879.342,1.066,1.066,0,0,1,.371.81v2.3a1.066,1.066,0,0,1-.371.81,1.255,1.255,0,0,1-.879.342h-2.5a1.255,1.255,0,0,1-.879-.342A1.066,1.066,0,0,1,5,31.1V28.8a1.066,1.066,0,0,1,.371-.81A1.255,1.255,0,0,1,6.253,27.647Zm22.512-2.3a1.255,1.255,0,0,1,.879.342,1.069,1.069,0,0,1,0,1.62,1.3,1.3,0,0,1-1.759,0,1.069,1.069,0,0,1,0-1.62A1.255,1.255,0,0,1,28.765,25.343Zm-10.005,2.3a1.255,1.255,0,0,1,.879.342,1.069,1.069,0,0,1,0,1.62,1.3,1.3,0,0,1-1.759,0,1.069,1.069,0,0,1,0-1.62A1.255,1.255,0,0,1,18.76,27.647Zm2.5,6.912a1.255,1.255,0,0,1,.879.342,1.069,1.069,0,0,1,0,1.62,1.3,1.3,0,0,1-1.759,0,1.069,1.069,0,0,1,0-1.62A1.255,1.255,0,0,1,21.261,34.559Zm12.507,0h1.251V33.407a1.066,1.066,0,0,1,.371-.81,1.3,1.3,0,0,1,1.759,0,1.066,1.066,0,0,1,.371.81v1.152h1.251a1.255,1.255,0,0,1,.879.342,1.069,1.069,0,0,1,0,1.62,1.255,1.255,0,0,1-.879.342h-5a1.255,1.255,0,0,1-.879-.342,1.069,1.069,0,0,1,0-1.62A1.255,1.255,0,0,1,33.768,34.559Z" transform="translate(0)"/>
            </g>
            <g id="qrcode-6" data-name="qrcode" transform="translate(44.97)" opacity="0.08">
              <path id="Path_33879-6" data-name="Path 33879" d="M38.771,32.255a1.255,1.255,0,0,1-.879-.342,1.069,1.069,0,0,1,0-1.62,1.3,1.3,0,0,1,1.759,0,1.069,1.069,0,0,1,0,1.62A1.255,1.255,0,0,1,38.771,32.255Zm0-9.216a1.255,1.255,0,0,1-.879-.342,1.066,1.066,0,0,1-.371-.81v-2.3a1.066,1.066,0,0,1,.371-.81,1.3,1.3,0,0,1,1.759,0,1.066,1.066,0,0,1,.371.81v2.3a1.066,1.066,0,0,1-.371.81A1.255,1.255,0,0,1,38.771,23.039Zm0-9.216H37.52v1.152a1.066,1.066,0,0,1-.371.81,1.3,1.3,0,0,1-1.759,0,1.066,1.066,0,0,1-.371-.81V13.824h-5v1.152a1.066,1.066,0,0,1-.371.81,1.255,1.255,0,0,1-.879.342H27.515V17.28a1.066,1.066,0,0,1-.371.81,1.3,1.3,0,0,1-1.759,0,1.066,1.066,0,0,1-.371-.81V9.216H21.261a1.255,1.255,0,0,1-.879-.342,1.069,1.069,0,0,1,0-1.62,1.255,1.255,0,0,1,.879-.342h3.752V2.3h-2.5V3.456a1.066,1.066,0,0,1-.371.81,1.3,1.3,0,0,1-1.759,0,1.066,1.066,0,0,1-.371-.81v-2.3a1.066,1.066,0,0,1,.371-.81A1.255,1.255,0,0,1,21.261,0H38.771a1.255,1.255,0,0,1,.879.342,1.066,1.066,0,0,1,.371.81v11.52a1.066,1.066,0,0,1-.371.81A1.255,1.255,0,0,1,38.771,13.824ZM37.52,3.456a1.066,1.066,0,0,0-.371-.81,1.255,1.255,0,0,0-.879-.342h-7.5a1.255,1.255,0,0,0-.879.342,1.066,1.066,0,0,0-.371.81v6.912a1.066,1.066,0,0,0,.371.81,1.255,1.255,0,0,0,.879.342h7.5a1.255,1.255,0,0,0,.879-.342,1.066,1.066,0,0,0,.371-.81Zm-3.752,5.76h-2.5a1.255,1.255,0,0,1-.879-.342,1.066,1.066,0,0,1-.371-.81V5.76a1.066,1.066,0,0,1,.371-.81,1.255,1.255,0,0,1,.879-.342h2.5a1.255,1.255,0,0,1,.879.342,1.066,1.066,0,0,1,.371.81v2.3a1.066,1.066,0,0,1-.371.81A1.255,1.255,0,0,1,33.768,9.216Zm-13.757,2.3h1.251a1.255,1.255,0,0,1,.879.342,1.069,1.069,0,0,1,0,1.62,1.255,1.255,0,0,1-.879.342H17.509v1.152a1.066,1.066,0,0,1-.371.81,1.3,1.3,0,0,1-1.759,0,1.066,1.066,0,0,1-.371-.81V13.824H7.5v2.3h2.5V14.976a1.066,1.066,0,0,1,.371-.81,1.3,1.3,0,0,1,1.759,0,1.066,1.066,0,0,1,.371.81v3.456h1.251a1.255,1.255,0,0,1,.879.342,1.069,1.069,0,0,1,0,1.62,1.255,1.255,0,0,1-.879.342h-2.5a1.255,1.255,0,0,1-.879-.342,1.066,1.066,0,0,1-.371-.81V18.431H6.253a1.339,1.339,0,0,1-.879-.306A.926.926,0,0,1,5,17.388V13.824H2.5v1.26a.926.926,0,0,1-.371.738,1.339,1.339,0,0,1-.879.306,1.339,1.339,0,0,1-.879-.306A.926.926,0,0,1,0,15.084v-2.16a.3.3,0,0,1,.039-.144.07.07,0,0,0-.02-.054A.07.07,0,0,1,0,12.672V1.152A1.066,1.066,0,0,1,.371.342,1.255,1.255,0,0,1,1.251,0H13.757a1.255,1.255,0,0,1,.879.342,1.066,1.066,0,0,1,.371.81V2.3h1.251a1.255,1.255,0,0,1,.879.342,1.069,1.069,0,0,1,0,1.62,1.255,1.255,0,0,1-.879.342H15.008v2.3h1.251a1.255,1.255,0,0,1,.879.342,1.069,1.069,0,0,1,0,1.62,1.255,1.255,0,0,1-.879.342H15.008v2.3h2.5V10.368a1.066,1.066,0,0,1,.371-.81,1.3,1.3,0,0,1,1.759,0,1.066,1.066,0,0,1,.371.81Zm-7.5-8.064a1.066,1.066,0,0,0-.371-.81,1.255,1.255,0,0,0-.879-.342h-7.5a1.255,1.255,0,0,0-.879.342,1.066,1.066,0,0,0-.371.81v6.912a1.066,1.066,0,0,0,.371.81,1.255,1.255,0,0,0,.879.342h7.5a1.255,1.255,0,0,0,.879-.342,1.066,1.066,0,0,0,.371-.81ZM8.755,9.216h-2.5a1.255,1.255,0,0,1-.879-.342A1.066,1.066,0,0,1,5,8.064V5.76a1.066,1.066,0,0,1,.371-.81,1.255,1.255,0,0,1,.879-.342h2.5a1.255,1.255,0,0,1,.879.342,1.066,1.066,0,0,1,.371.81v2.3a1.066,1.066,0,0,1-.371.81A1.255,1.255,0,0,1,8.755,9.216Zm-7.5,9.216a1.255,1.255,0,0,1,.879.342,1.069,1.069,0,0,1,0,1.62,1.255,1.255,0,0,1-.879.342,1.255,1.255,0,0,1-.879-.342,1.069,1.069,0,0,1,0-1.62A1.255,1.255,0,0,1,1.251,18.431Zm17.509,2.3a1.255,1.255,0,0,1-.879-.342,1.069,1.069,0,0,1,0-1.62,1.3,1.3,0,0,1,1.759,0,1.069,1.069,0,0,1,0,1.62A1.255,1.255,0,0,1,18.76,20.735Zm2.5-4.608a1.255,1.255,0,0,1,.879.342,1.069,1.069,0,0,1,0,1.62,1.3,1.3,0,0,1-1.759,0,1.069,1.069,0,0,1,0-1.62A1.255,1.255,0,0,1,21.261,16.128Zm8.755,1.152a1.066,1.066,0,0,1,.371-.81,1.3,1.3,0,0,1,1.759,0,1.069,1.069,0,0,1,0,1.62,1.3,1.3,0,0,1-1.759,0A1.066,1.066,0,0,1,30.016,17.28ZM1.251,23.039H5V21.887a1.066,1.066,0,0,1,.371-.81,1.3,1.3,0,0,1,1.759,0,1.066,1.066,0,0,1,.371.81v1.152h6.253a1.255,1.255,0,0,1,.879.342,1.066,1.066,0,0,1,.371.81v-2.3a1.066,1.066,0,0,1,.371-.81,1.3,1.3,0,0,1,1.759,0,1.066,1.066,0,0,1,.371.81v2.3h5v-2.3a1.066,1.066,0,0,1,.371-.81,1.255,1.255,0,0,1,.879-.342h8.755V19.583a1.066,1.066,0,0,1,.371-.81,1.3,1.3,0,0,1,1.759,0,1.066,1.066,0,0,1,.371.81v5.76h1.251a1.255,1.255,0,0,1,.879.342,1.069,1.069,0,0,1,0,1.62,1.255,1.255,0,0,1-.879.342H35.019V31.1a1.066,1.066,0,0,1-.371.81,1.255,1.255,0,0,1-.879.342H30.016v3.456a1.066,1.066,0,0,1-.371.81,1.3,1.3,0,0,1-1.759,0,1.066,1.066,0,0,1-.371-.81V32.255h-2.5v1.152a1.066,1.066,0,0,1-.371.81,1.3,1.3,0,0,1-1.759,0,1.066,1.066,0,0,1-.371-.81V32.255H21.261a1.255,1.255,0,0,1-.879-.342,1.069,1.069,0,0,1,0-1.62,1.255,1.255,0,0,1,.879-.342h1.251V26.5h-7.5v5.76h1.251a1.255,1.255,0,0,1,.879.342,1.069,1.069,0,0,1,0,1.62,1.255,1.255,0,0,1-.879.342H15.008v1.152a1.066,1.066,0,0,1-.371.81,1.255,1.255,0,0,1-.879.342H1.251a1.255,1.255,0,0,1-.879-.342A1.066,1.066,0,0,1,0,35.711V24.191a1.066,1.066,0,0,1,.371-.81A1.255,1.255,0,0,1,1.251,23.039Zm25.013,6.912h5a1.255,1.255,0,0,0,.879-.342,1.066,1.066,0,0,0,.371-.81V24.191a1.066,1.066,0,0,0-.371-.81,1.255,1.255,0,0,0-.879-.342h-5a1.255,1.255,0,0,0-.879.342,1.066,1.066,0,0,0-.371.81V28.8a1.066,1.066,0,0,0,.371.81A1.255,1.255,0,0,0,26.264,29.951ZM2.5,33.407a1.066,1.066,0,0,0,.371.81,1.255,1.255,0,0,0,.879.342h7.5a1.255,1.255,0,0,0,.879-.342,1.066,1.066,0,0,0,.371-.81V26.5a1.066,1.066,0,0,0-.371-.81,1.255,1.255,0,0,0-.879-.342h-7.5a1.255,1.255,0,0,0-.879.342,1.066,1.066,0,0,0-.371.81Zm3.752-5.76h2.5a1.255,1.255,0,0,1,.879.342,1.066,1.066,0,0,1,.371.81v2.3a1.066,1.066,0,0,1-.371.81,1.255,1.255,0,0,1-.879.342h-2.5a1.255,1.255,0,0,1-.879-.342A1.066,1.066,0,0,1,5,31.1V28.8a1.066,1.066,0,0,1,.371-.81A1.255,1.255,0,0,1,6.253,27.647Zm22.512-2.3a1.255,1.255,0,0,1,.879.342,1.069,1.069,0,0,1,0,1.62,1.3,1.3,0,0,1-1.759,0,1.069,1.069,0,0,1,0-1.62A1.255,1.255,0,0,1,28.765,25.343Zm-10.005,2.3a1.255,1.255,0,0,1,.879.342,1.069,1.069,0,0,1,0,1.62,1.3,1.3,0,0,1-1.759,0,1.069,1.069,0,0,1,0-1.62A1.255,1.255,0,0,1,18.76,27.647Zm2.5,6.912a1.255,1.255,0,0,1,.879.342,1.069,1.069,0,0,1,0,1.62,1.3,1.3,0,0,1-1.759,0,1.069,1.069,0,0,1,0-1.62A1.255,1.255,0,0,1,21.261,34.559Zm12.507,0h1.251V33.407a1.066,1.066,0,0,1,.371-.81,1.3,1.3,0,0,1,1.759,0,1.066,1.066,0,0,1,.371.81v1.152h1.251a1.255,1.255,0,0,1,.879.342,1.069,1.069,0,0,1,0,1.62,1.255,1.255,0,0,1-.879.342h-5a1.255,1.255,0,0,1-.879-.342,1.069,1.069,0,0,1,0-1.62A1.255,1.255,0,0,1,33.768,34.559Z" transform="translate(0)"/>
            </g>
          </g>
          <g id="Group_39954-2" data-name="Group 39954" transform="translate(0 36.863)">
            <g id="qrcode-7" data-name="qrcode" opacity="0.08">
              <path id="Path_33879-7" data-name="Path 33879" d="M38.771,32.255a1.255,1.255,0,0,1-.879-.342,1.069,1.069,0,0,1,0-1.62,1.3,1.3,0,0,1,1.759,0,1.069,1.069,0,0,1,0,1.62A1.255,1.255,0,0,1,38.771,32.255Zm0-9.216a1.255,1.255,0,0,1-.879-.342,1.066,1.066,0,0,1-.371-.81v-2.3a1.066,1.066,0,0,1,.371-.81,1.3,1.3,0,0,1,1.759,0,1.066,1.066,0,0,1,.371.81v2.3a1.066,1.066,0,0,1-.371.81A1.255,1.255,0,0,1,38.771,23.039Zm0-9.216H37.52v1.152a1.066,1.066,0,0,1-.371.81,1.3,1.3,0,0,1-1.759,0,1.066,1.066,0,0,1-.371-.81V13.824h-5v1.152a1.066,1.066,0,0,1-.371.81,1.255,1.255,0,0,1-.879.342H27.515V17.28a1.066,1.066,0,0,1-.371.81,1.3,1.3,0,0,1-1.759,0,1.066,1.066,0,0,1-.371-.81V9.216H21.261a1.255,1.255,0,0,1-.879-.342,1.069,1.069,0,0,1,0-1.62,1.255,1.255,0,0,1,.879-.342h3.752V2.3h-2.5V3.456a1.066,1.066,0,0,1-.371.81,1.3,1.3,0,0,1-1.759,0,1.066,1.066,0,0,1-.371-.81v-2.3a1.066,1.066,0,0,1,.371-.81A1.255,1.255,0,0,1,21.261,0H38.771a1.255,1.255,0,0,1,.879.342,1.066,1.066,0,0,1,.371.81v11.52a1.066,1.066,0,0,1-.371.81A1.255,1.255,0,0,1,38.771,13.824ZM37.52,3.456a1.066,1.066,0,0,0-.371-.81,1.255,1.255,0,0,0-.879-.342h-7.5a1.255,1.255,0,0,0-.879.342,1.066,1.066,0,0,0-.371.81v6.912a1.066,1.066,0,0,0,.371.81,1.255,1.255,0,0,0,.879.342h7.5a1.255,1.255,0,0,0,.879-.342,1.066,1.066,0,0,0,.371-.81Zm-3.752,5.76h-2.5a1.255,1.255,0,0,1-.879-.342,1.066,1.066,0,0,1-.371-.81V5.76a1.066,1.066,0,0,1,.371-.81,1.255,1.255,0,0,1,.879-.342h2.5a1.255,1.255,0,0,1,.879.342,1.066,1.066,0,0,1,.371.81v2.3a1.066,1.066,0,0,1-.371.81A1.255,1.255,0,0,1,33.768,9.216Zm-13.757,2.3h1.251a1.255,1.255,0,0,1,.879.342,1.069,1.069,0,0,1,0,1.62,1.255,1.255,0,0,1-.879.342H17.509v1.152a1.066,1.066,0,0,1-.371.81,1.3,1.3,0,0,1-1.759,0,1.066,1.066,0,0,1-.371-.81V13.824H7.5v2.3h2.5V14.976a1.066,1.066,0,0,1,.371-.81,1.3,1.3,0,0,1,1.759,0,1.066,1.066,0,0,1,.371.81v3.456h1.251a1.255,1.255,0,0,1,.879.342,1.069,1.069,0,0,1,0,1.62,1.255,1.255,0,0,1-.879.342h-2.5a1.255,1.255,0,0,1-.879-.342,1.066,1.066,0,0,1-.371-.81V18.431H6.253a1.339,1.339,0,0,1-.879-.306A.926.926,0,0,1,5,17.388V13.824H2.5v1.26a.926.926,0,0,1-.371.738,1.339,1.339,0,0,1-.879.306,1.339,1.339,0,0,1-.879-.306A.926.926,0,0,1,0,15.084v-2.16a.3.3,0,0,1,.039-.144.07.07,0,0,0-.02-.054A.07.07,0,0,1,0,12.672V1.152A1.066,1.066,0,0,1,.371.342,1.255,1.255,0,0,1,1.251,0H13.757a1.255,1.255,0,0,1,.879.342,1.066,1.066,0,0,1,.371.81V2.3h1.251a1.255,1.255,0,0,1,.879.342,1.069,1.069,0,0,1,0,1.62,1.255,1.255,0,0,1-.879.342H15.008v2.3h1.251a1.255,1.255,0,0,1,.879.342,1.069,1.069,0,0,1,0,1.62,1.255,1.255,0,0,1-.879.342H15.008v2.3h2.5V10.368a1.066,1.066,0,0,1,.371-.81,1.3,1.3,0,0,1,1.759,0,1.066,1.066,0,0,1,.371.81Zm-7.5-8.064a1.066,1.066,0,0,0-.371-.81,1.255,1.255,0,0,0-.879-.342h-7.5a1.255,1.255,0,0,0-.879.342,1.066,1.066,0,0,0-.371.81v6.912a1.066,1.066,0,0,0,.371.81,1.255,1.255,0,0,0,.879.342h7.5a1.255,1.255,0,0,0,.879-.342,1.066,1.066,0,0,0,.371-.81ZM8.755,9.216h-2.5a1.255,1.255,0,0,1-.879-.342A1.066,1.066,0,0,1,5,8.064V5.76a1.066,1.066,0,0,1,.371-.81,1.255,1.255,0,0,1,.879-.342h2.5a1.255,1.255,0,0,1,.879.342,1.066,1.066,0,0,1,.371.81v2.3a1.066,1.066,0,0,1-.371.81A1.255,1.255,0,0,1,8.755,9.216Zm-7.5,9.216a1.255,1.255,0,0,1,.879.342,1.069,1.069,0,0,1,0,1.62,1.255,1.255,0,0,1-.879.342,1.255,1.255,0,0,1-.879-.342,1.069,1.069,0,0,1,0-1.62A1.255,1.255,0,0,1,1.251,18.431Zm17.509,2.3a1.255,1.255,0,0,1-.879-.342,1.069,1.069,0,0,1,0-1.62,1.3,1.3,0,0,1,1.759,0,1.069,1.069,0,0,1,0,1.62A1.255,1.255,0,0,1,18.76,20.735Zm2.5-4.608a1.255,1.255,0,0,1,.879.342,1.069,1.069,0,0,1,0,1.62,1.3,1.3,0,0,1-1.759,0,1.069,1.069,0,0,1,0-1.62A1.255,1.255,0,0,1,21.261,16.128Zm8.755,1.152a1.066,1.066,0,0,1,.371-.81,1.3,1.3,0,0,1,1.759,0,1.069,1.069,0,0,1,0,1.62,1.3,1.3,0,0,1-1.759,0A1.066,1.066,0,0,1,30.016,17.28ZM1.251,23.039H5V21.887a1.066,1.066,0,0,1,.371-.81,1.3,1.3,0,0,1,1.759,0,1.066,1.066,0,0,1,.371.81v1.152h6.253a1.255,1.255,0,0,1,.879.342,1.066,1.066,0,0,1,.371.81v-2.3a1.066,1.066,0,0,1,.371-.81,1.3,1.3,0,0,1,1.759,0,1.066,1.066,0,0,1,.371.81v2.3h5v-2.3a1.066,1.066,0,0,1,.371-.81,1.255,1.255,0,0,1,.879-.342h8.755V19.583a1.066,1.066,0,0,1,.371-.81,1.3,1.3,0,0,1,1.759,0,1.066,1.066,0,0,1,.371.81v5.76h1.251a1.255,1.255,0,0,1,.879.342,1.069,1.069,0,0,1,0,1.62,1.255,1.255,0,0,1-.879.342H35.019V31.1a1.066,1.066,0,0,1-.371.81,1.255,1.255,0,0,1-.879.342H30.016v3.456a1.066,1.066,0,0,1-.371.81,1.3,1.3,0,0,1-1.759,0,1.066,1.066,0,0,1-.371-.81V32.255h-2.5v1.152a1.066,1.066,0,0,1-.371.81,1.3,1.3,0,0,1-1.759,0,1.066,1.066,0,0,1-.371-.81V32.255H21.261a1.255,1.255,0,0,1-.879-.342,1.069,1.069,0,0,1,0-1.62,1.255,1.255,0,0,1,.879-.342h1.251V26.5h-7.5v5.76h1.251a1.255,1.255,0,0,1,.879.342,1.069,1.069,0,0,1,0,1.62,1.255,1.255,0,0,1-.879.342H15.008v1.152a1.066,1.066,0,0,1-.371.81,1.255,1.255,0,0,1-.879.342H1.251a1.255,1.255,0,0,1-.879-.342A1.066,1.066,0,0,1,0,35.711V24.191a1.066,1.066,0,0,1,.371-.81A1.255,1.255,0,0,1,1.251,23.039Zm25.013,6.912h5a1.255,1.255,0,0,0,.879-.342,1.066,1.066,0,0,0,.371-.81V24.191a1.066,1.066,0,0,0-.371-.81,1.255,1.255,0,0,0-.879-.342h-5a1.255,1.255,0,0,0-.879.342,1.066,1.066,0,0,0-.371.81V28.8a1.066,1.066,0,0,0,.371.81A1.255,1.255,0,0,0,26.264,29.951ZM2.5,33.407a1.066,1.066,0,0,0,.371.81,1.255,1.255,0,0,0,.879.342h7.5a1.255,1.255,0,0,0,.879-.342,1.066,1.066,0,0,0,.371-.81V26.5a1.066,1.066,0,0,0-.371-.81,1.255,1.255,0,0,0-.879-.342h-7.5a1.255,1.255,0,0,0-.879.342,1.066,1.066,0,0,0-.371.81Zm3.752-5.76h2.5a1.255,1.255,0,0,1,.879.342,1.066,1.066,0,0,1,.371.81v2.3a1.066,1.066,0,0,1-.371.81,1.255,1.255,0,0,1-.879.342h-2.5a1.255,1.255,0,0,1-.879-.342A1.066,1.066,0,0,1,5,31.1V28.8a1.066,1.066,0,0,1,.371-.81A1.255,1.255,0,0,1,6.253,27.647Zm22.512-2.3a1.255,1.255,0,0,1,.879.342,1.069,1.069,0,0,1,0,1.62,1.3,1.3,0,0,1-1.759,0,1.069,1.069,0,0,1,0-1.62A1.255,1.255,0,0,1,28.765,25.343Zm-10.005,2.3a1.255,1.255,0,0,1,.879.342,1.069,1.069,0,0,1,0,1.62,1.3,1.3,0,0,1-1.759,0,1.069,1.069,0,0,1,0-1.62A1.255,1.255,0,0,1,18.76,27.647Zm2.5,6.912a1.255,1.255,0,0,1,.879.342,1.069,1.069,0,0,1,0,1.62,1.3,1.3,0,0,1-1.759,0,1.069,1.069,0,0,1,0-1.62A1.255,1.255,0,0,1,21.261,34.559Zm12.507,0h1.251V33.407a1.066,1.066,0,0,1,.371-.81,1.3,1.3,0,0,1,1.759,0,1.066,1.066,0,0,1,.371.81v1.152h1.251a1.255,1.255,0,0,1,.879.342,1.069,1.069,0,0,1,0,1.62,1.255,1.255,0,0,1-.879.342h-5a1.255,1.255,0,0,1-.879-.342,1.069,1.069,0,0,1,0-1.62A1.255,1.255,0,0,1,33.768,34.559Z" transform="translate(0)"/>
            </g>
            <g id="qrcode-8" data-name="qrcode" transform="translate(44.97)" opacity="0.08">
              <path id="Path_33879-8" data-name="Path 33879" d="M38.771,32.255a1.255,1.255,0,0,1-.879-.342,1.069,1.069,0,0,1,0-1.62,1.3,1.3,0,0,1,1.759,0,1.069,1.069,0,0,1,0,1.62A1.255,1.255,0,0,1,38.771,32.255Zm0-9.216a1.255,1.255,0,0,1-.879-.342,1.066,1.066,0,0,1-.371-.81v-2.3a1.066,1.066,0,0,1,.371-.81,1.3,1.3,0,0,1,1.759,0,1.066,1.066,0,0,1,.371.81v2.3a1.066,1.066,0,0,1-.371.81A1.255,1.255,0,0,1,38.771,23.039Zm0-9.216H37.52v1.152a1.066,1.066,0,0,1-.371.81,1.3,1.3,0,0,1-1.759,0,1.066,1.066,0,0,1-.371-.81V13.824h-5v1.152a1.066,1.066,0,0,1-.371.81,1.255,1.255,0,0,1-.879.342H27.515V17.28a1.066,1.066,0,0,1-.371.81,1.3,1.3,0,0,1-1.759,0,1.066,1.066,0,0,1-.371-.81V9.216H21.261a1.255,1.255,0,0,1-.879-.342,1.069,1.069,0,0,1,0-1.62,1.255,1.255,0,0,1,.879-.342h3.752V2.3h-2.5V3.456a1.066,1.066,0,0,1-.371.81,1.3,1.3,0,0,1-1.759,0,1.066,1.066,0,0,1-.371-.81v-2.3a1.066,1.066,0,0,1,.371-.81A1.255,1.255,0,0,1,21.261,0H38.771a1.255,1.255,0,0,1,.879.342,1.066,1.066,0,0,1,.371.81v11.52a1.066,1.066,0,0,1-.371.81A1.255,1.255,0,0,1,38.771,13.824ZM37.52,3.456a1.066,1.066,0,0,0-.371-.81,1.255,1.255,0,0,0-.879-.342h-7.5a1.255,1.255,0,0,0-.879.342,1.066,1.066,0,0,0-.371.81v6.912a1.066,1.066,0,0,0,.371.81,1.255,1.255,0,0,0,.879.342h7.5a1.255,1.255,0,0,0,.879-.342,1.066,1.066,0,0,0,.371-.81Zm-3.752,5.76h-2.5a1.255,1.255,0,0,1-.879-.342,1.066,1.066,0,0,1-.371-.81V5.76a1.066,1.066,0,0,1,.371-.81,1.255,1.255,0,0,1,.879-.342h2.5a1.255,1.255,0,0,1,.879.342,1.066,1.066,0,0,1,.371.81v2.3a1.066,1.066,0,0,1-.371.81A1.255,1.255,0,0,1,33.768,9.216Zm-13.757,2.3h1.251a1.255,1.255,0,0,1,.879.342,1.069,1.069,0,0,1,0,1.62,1.255,1.255,0,0,1-.879.342H17.509v1.152a1.066,1.066,0,0,1-.371.81,1.3,1.3,0,0,1-1.759,0,1.066,1.066,0,0,1-.371-.81V13.824H7.5v2.3h2.5V14.976a1.066,1.066,0,0,1,.371-.81,1.3,1.3,0,0,1,1.759,0,1.066,1.066,0,0,1,.371.81v3.456h1.251a1.255,1.255,0,0,1,.879.342,1.069,1.069,0,0,1,0,1.62,1.255,1.255,0,0,1-.879.342h-2.5a1.255,1.255,0,0,1-.879-.342,1.066,1.066,0,0,1-.371-.81V18.431H6.253a1.339,1.339,0,0,1-.879-.306A.926.926,0,0,1,5,17.388V13.824H2.5v1.26a.926.926,0,0,1-.371.738,1.339,1.339,0,0,1-.879.306,1.339,1.339,0,0,1-.879-.306A.926.926,0,0,1,0,15.084v-2.16a.3.3,0,0,1,.039-.144.07.07,0,0,0-.02-.054A.07.07,0,0,1,0,12.672V1.152A1.066,1.066,0,0,1,.371.342,1.255,1.255,0,0,1,1.251,0H13.757a1.255,1.255,0,0,1,.879.342,1.066,1.066,0,0,1,.371.81V2.3h1.251a1.255,1.255,0,0,1,.879.342,1.069,1.069,0,0,1,0,1.62,1.255,1.255,0,0,1-.879.342H15.008v2.3h1.251a1.255,1.255,0,0,1,.879.342,1.069,1.069,0,0,1,0,1.62,1.255,1.255,0,0,1-.879.342H15.008v2.3h2.5V10.368a1.066,1.066,0,0,1,.371-.81,1.3,1.3,0,0,1,1.759,0,1.066,1.066,0,0,1,.371.81Zm-7.5-8.064a1.066,1.066,0,0,0-.371-.81,1.255,1.255,0,0,0-.879-.342h-7.5a1.255,1.255,0,0,0-.879.342,1.066,1.066,0,0,0-.371.81v6.912a1.066,1.066,0,0,0,.371.81,1.255,1.255,0,0,0,.879.342h7.5a1.255,1.255,0,0,0,.879-.342,1.066,1.066,0,0,0,.371-.81ZM8.755,9.216h-2.5a1.255,1.255,0,0,1-.879-.342A1.066,1.066,0,0,1,5,8.064V5.76a1.066,1.066,0,0,1,.371-.81,1.255,1.255,0,0,1,.879-.342h2.5a1.255,1.255,0,0,1,.879.342,1.066,1.066,0,0,1,.371.81v2.3a1.066,1.066,0,0,1-.371.81A1.255,1.255,0,0,1,8.755,9.216Zm-7.5,9.216a1.255,1.255,0,0,1,.879.342,1.069,1.069,0,0,1,0,1.62,1.255,1.255,0,0,1-.879.342,1.255,1.255,0,0,1-.879-.342,1.069,1.069,0,0,1,0-1.62A1.255,1.255,0,0,1,1.251,18.431Zm17.509,2.3a1.255,1.255,0,0,1-.879-.342,1.069,1.069,0,0,1,0-1.62,1.3,1.3,0,0,1,1.759,0,1.069,1.069,0,0,1,0,1.62A1.255,1.255,0,0,1,18.76,20.735Zm2.5-4.608a1.255,1.255,0,0,1,.879.342,1.069,1.069,0,0,1,0,1.62,1.3,1.3,0,0,1-1.759,0,1.069,1.069,0,0,1,0-1.62A1.255,1.255,0,0,1,21.261,16.128Zm8.755,1.152a1.066,1.066,0,0,1,.371-.81,1.3,1.3,0,0,1,1.759,0,1.069,1.069,0,0,1,0,1.62,1.3,1.3,0,0,1-1.759,0A1.066,1.066,0,0,1,30.016,17.28ZM1.251,23.039H5V21.887a1.066,1.066,0,0,1,.371-.81,1.3,1.3,0,0,1,1.759,0,1.066,1.066,0,0,1,.371.81v1.152h6.253a1.255,1.255,0,0,1,.879.342,1.066,1.066,0,0,1,.371.81v-2.3a1.066,1.066,0,0,1,.371-.81,1.3,1.3,0,0,1,1.759,0,1.066,1.066,0,0,1,.371.81v2.3h5v-2.3a1.066,1.066,0,0,1,.371-.81,1.255,1.255,0,0,1,.879-.342h8.755V19.583a1.066,1.066,0,0,1,.371-.81,1.3,1.3,0,0,1,1.759,0,1.066,1.066,0,0,1,.371.81v5.76h1.251a1.255,1.255,0,0,1,.879.342,1.069,1.069,0,0,1,0,1.62,1.255,1.255,0,0,1-.879.342H35.019V31.1a1.066,1.066,0,0,1-.371.81,1.255,1.255,0,0,1-.879.342H30.016v3.456a1.066,1.066,0,0,1-.371.81,1.3,1.3,0,0,1-1.759,0,1.066,1.066,0,0,1-.371-.81V32.255h-2.5v1.152a1.066,1.066,0,0,1-.371.81,1.3,1.3,0,0,1-1.759,0,1.066,1.066,0,0,1-.371-.81V32.255H21.261a1.255,1.255,0,0,1-.879-.342,1.069,1.069,0,0,1,0-1.62,1.255,1.255,0,0,1,.879-.342h1.251V26.5h-7.5v5.76h1.251a1.255,1.255,0,0,1,.879.342,1.069,1.069,0,0,1,0,1.62,1.255,1.255,0,0,1-.879.342H15.008v1.152a1.066,1.066,0,0,1-.371.81,1.255,1.255,0,0,1-.879.342H1.251a1.255,1.255,0,0,1-.879-.342A1.066,1.066,0,0,1,0,35.711V24.191a1.066,1.066,0,0,1,.371-.81A1.255,1.255,0,0,1,1.251,23.039Zm25.013,6.912h5a1.255,1.255,0,0,0,.879-.342,1.066,1.066,0,0,0,.371-.81V24.191a1.066,1.066,0,0,0-.371-.81,1.255,1.255,0,0,0-.879-.342h-5a1.255,1.255,0,0,0-.879.342,1.066,1.066,0,0,0-.371.81V28.8a1.066,1.066,0,0,0,.371.81A1.255,1.255,0,0,0,26.264,29.951ZM2.5,33.407a1.066,1.066,0,0,0,.371.81,1.255,1.255,0,0,0,.879.342h7.5a1.255,1.255,0,0,0,.879-.342,1.066,1.066,0,0,0,.371-.81V26.5a1.066,1.066,0,0,0-.371-.81,1.255,1.255,0,0,0-.879-.342h-7.5a1.255,1.255,0,0,0-.879.342,1.066,1.066,0,0,0-.371.81Zm3.752-5.76h2.5a1.255,1.255,0,0,1,.879.342,1.066,1.066,0,0,1,.371.81v2.3a1.066,1.066,0,0,1-.371.81,1.255,1.255,0,0,1-.879.342h-2.5a1.255,1.255,0,0,1-.879-.342A1.066,1.066,0,0,1,5,31.1V28.8a1.066,1.066,0,0,1,.371-.81A1.255,1.255,0,0,1,6.253,27.647Zm22.512-2.3a1.255,1.255,0,0,1,.879.342,1.069,1.069,0,0,1,0,1.62,1.3,1.3,0,0,1-1.759,0,1.069,1.069,0,0,1,0-1.62A1.255,1.255,0,0,1,28.765,25.343Zm-10.005,2.3a1.255,1.255,0,0,1,.879.342,1.069,1.069,0,0,1,0,1.62,1.3,1.3,0,0,1-1.759,0,1.069,1.069,0,0,1,0-1.62A1.255,1.255,0,0,1,18.76,27.647Zm2.5,6.912a1.255,1.255,0,0,1,.879.342,1.069,1.069,0,0,1,0,1.62,1.3,1.3,0,0,1-1.759,0,1.069,1.069,0,0,1,0-1.62A1.255,1.255,0,0,1,21.261,34.559Zm12.507,0h1.251V33.407a1.066,1.066,0,0,1,.371-.81,1.3,1.3,0,0,1,1.759,0,1.066,1.066,0,0,1,.371.81v1.152h1.251a1.255,1.255,0,0,1,.879.342,1.069,1.069,0,0,1,0,1.62,1.255,1.255,0,0,1-.879.342h-5a1.255,1.255,0,0,1-.879-.342,1.069,1.069,0,0,1,0-1.62A1.255,1.255,0,0,1,33.768,34.559Z" transform="translate(0)"/>
            </g>
          </g>
        </g>
        <g id="Group_39957" data-name="Group 39957" transform="translate(170.929 0)">
          <g id="Group_39953-3" data-name="Group 39953" transform="translate(0)">
            <g id="qrcode-9" data-name="qrcode" opacity="0.08">
              <path id="Path_33879-9" data-name="Path 33879" d="M38.771,32.255a1.255,1.255,0,0,1-.879-.342,1.069,1.069,0,0,1,0-1.62,1.3,1.3,0,0,1,1.759,0,1.069,1.069,0,0,1,0,1.62A1.255,1.255,0,0,1,38.771,32.255Zm0-9.216a1.255,1.255,0,0,1-.879-.342,1.066,1.066,0,0,1-.371-.81v-2.3a1.066,1.066,0,0,1,.371-.81,1.3,1.3,0,0,1,1.759,0,1.066,1.066,0,0,1,.371.81v2.3a1.066,1.066,0,0,1-.371.81A1.255,1.255,0,0,1,38.771,23.039Zm0-9.216H37.52v1.152a1.066,1.066,0,0,1-.371.81,1.3,1.3,0,0,1-1.759,0,1.066,1.066,0,0,1-.371-.81V13.824h-5v1.152a1.066,1.066,0,0,1-.371.81,1.255,1.255,0,0,1-.879.342H27.515V17.28a1.066,1.066,0,0,1-.371.81,1.3,1.3,0,0,1-1.759,0,1.066,1.066,0,0,1-.371-.81V9.216H21.261a1.255,1.255,0,0,1-.879-.342,1.069,1.069,0,0,1,0-1.62,1.255,1.255,0,0,1,.879-.342h3.752V2.3h-2.5V3.456a1.066,1.066,0,0,1-.371.81,1.3,1.3,0,0,1-1.759,0,1.066,1.066,0,0,1-.371-.81v-2.3a1.066,1.066,0,0,1,.371-.81A1.255,1.255,0,0,1,21.261,0H38.771a1.255,1.255,0,0,1,.879.342,1.066,1.066,0,0,1,.371.81v11.52a1.066,1.066,0,0,1-.371.81A1.255,1.255,0,0,1,38.771,13.824ZM37.52,3.456a1.066,1.066,0,0,0-.371-.81,1.255,1.255,0,0,0-.879-.342h-7.5a1.255,1.255,0,0,0-.879.342,1.066,1.066,0,0,0-.371.81v6.912a1.066,1.066,0,0,0,.371.81,1.255,1.255,0,0,0,.879.342h7.5a1.255,1.255,0,0,0,.879-.342,1.066,1.066,0,0,0,.371-.81Zm-3.752,5.76h-2.5a1.255,1.255,0,0,1-.879-.342,1.066,1.066,0,0,1-.371-.81V5.76a1.066,1.066,0,0,1,.371-.81,1.255,1.255,0,0,1,.879-.342h2.5a1.255,1.255,0,0,1,.879.342,1.066,1.066,0,0,1,.371.81v2.3a1.066,1.066,0,0,1-.371.81A1.255,1.255,0,0,1,33.768,9.216Zm-13.757,2.3h1.251a1.255,1.255,0,0,1,.879.342,1.069,1.069,0,0,1,0,1.62,1.255,1.255,0,0,1-.879.342H17.509v1.152a1.066,1.066,0,0,1-.371.81,1.3,1.3,0,0,1-1.759,0,1.066,1.066,0,0,1-.371-.81V13.824H7.5v2.3h2.5V14.976a1.066,1.066,0,0,1,.371-.81,1.3,1.3,0,0,1,1.759,0,1.066,1.066,0,0,1,.371.81v3.456h1.251a1.255,1.255,0,0,1,.879.342,1.069,1.069,0,0,1,0,1.62,1.255,1.255,0,0,1-.879.342h-2.5a1.255,1.255,0,0,1-.879-.342,1.066,1.066,0,0,1-.371-.81V18.431H6.253a1.339,1.339,0,0,1-.879-.306A.926.926,0,0,1,5,17.388V13.824H2.5v1.26a.926.926,0,0,1-.371.738,1.339,1.339,0,0,1-.879.306,1.339,1.339,0,0,1-.879-.306A.926.926,0,0,1,0,15.084v-2.16a.3.3,0,0,1,.039-.144.07.07,0,0,0-.02-.054A.07.07,0,0,1,0,12.672V1.152A1.066,1.066,0,0,1,.371.342,1.255,1.255,0,0,1,1.251,0H13.757a1.255,1.255,0,0,1,.879.342,1.066,1.066,0,0,1,.371.81V2.3h1.251a1.255,1.255,0,0,1,.879.342,1.069,1.069,0,0,1,0,1.62,1.255,1.255,0,0,1-.879.342H15.008v2.3h1.251a1.255,1.255,0,0,1,.879.342,1.069,1.069,0,0,1,0,1.62,1.255,1.255,0,0,1-.879.342H15.008v2.3h2.5V10.368a1.066,1.066,0,0,1,.371-.81,1.3,1.3,0,0,1,1.759,0,1.066,1.066,0,0,1,.371.81Zm-7.5-8.064a1.066,1.066,0,0,0-.371-.81,1.255,1.255,0,0,0-.879-.342h-7.5a1.255,1.255,0,0,0-.879.342,1.066,1.066,0,0,0-.371.81v6.912a1.066,1.066,0,0,0,.371.81,1.255,1.255,0,0,0,.879.342h7.5a1.255,1.255,0,0,0,.879-.342,1.066,1.066,0,0,0,.371-.81ZM8.755,9.216h-2.5a1.255,1.255,0,0,1-.879-.342A1.066,1.066,0,0,1,5,8.064V5.76a1.066,1.066,0,0,1,.371-.81,1.255,1.255,0,0,1,.879-.342h2.5a1.255,1.255,0,0,1,.879.342,1.066,1.066,0,0,1,.371.81v2.3a1.066,1.066,0,0,1-.371.81A1.255,1.255,0,0,1,8.755,9.216Zm-7.5,9.216a1.255,1.255,0,0,1,.879.342,1.069,1.069,0,0,1,0,1.62,1.255,1.255,0,0,1-.879.342,1.255,1.255,0,0,1-.879-.342,1.069,1.069,0,0,1,0-1.62A1.255,1.255,0,0,1,1.251,18.431Zm17.509,2.3a1.255,1.255,0,0,1-.879-.342,1.069,1.069,0,0,1,0-1.62,1.3,1.3,0,0,1,1.759,0,1.069,1.069,0,0,1,0,1.62A1.255,1.255,0,0,1,18.76,20.735Zm2.5-4.608a1.255,1.255,0,0,1,.879.342,1.069,1.069,0,0,1,0,1.62,1.3,1.3,0,0,1-1.759,0,1.069,1.069,0,0,1,0-1.62A1.255,1.255,0,0,1,21.261,16.128Zm8.755,1.152a1.066,1.066,0,0,1,.371-.81,1.3,1.3,0,0,1,1.759,0,1.069,1.069,0,0,1,0,1.62,1.3,1.3,0,0,1-1.759,0A1.066,1.066,0,0,1,30.016,17.28ZM1.251,23.039H5V21.887a1.066,1.066,0,0,1,.371-.81,1.3,1.3,0,0,1,1.759,0,1.066,1.066,0,0,1,.371.81v1.152h6.253a1.255,1.255,0,0,1,.879.342,1.066,1.066,0,0,1,.371.81v-2.3a1.066,1.066,0,0,1,.371-.81,1.3,1.3,0,0,1,1.759,0,1.066,1.066,0,0,1,.371.81v2.3h5v-2.3a1.066,1.066,0,0,1,.371-.81,1.255,1.255,0,0,1,.879-.342h8.755V19.583a1.066,1.066,0,0,1,.371-.81,1.3,1.3,0,0,1,1.759,0,1.066,1.066,0,0,1,.371.81v5.76h1.251a1.255,1.255,0,0,1,.879.342,1.069,1.069,0,0,1,0,1.62,1.255,1.255,0,0,1-.879.342H35.019V31.1a1.066,1.066,0,0,1-.371.81,1.255,1.255,0,0,1-.879.342H30.016v3.456a1.066,1.066,0,0,1-.371.81,1.3,1.3,0,0,1-1.759,0,1.066,1.066,0,0,1-.371-.81V32.255h-2.5v1.152a1.066,1.066,0,0,1-.371.81,1.3,1.3,0,0,1-1.759,0,1.066,1.066,0,0,1-.371-.81V32.255H21.261a1.255,1.255,0,0,1-.879-.342,1.069,1.069,0,0,1,0-1.62,1.255,1.255,0,0,1,.879-.342h1.251V26.5h-7.5v5.76h1.251a1.255,1.255,0,0,1,.879.342,1.069,1.069,0,0,1,0,1.62,1.255,1.255,0,0,1-.879.342H15.008v1.152a1.066,1.066,0,0,1-.371.81,1.255,1.255,0,0,1-.879.342H1.251a1.255,1.255,0,0,1-.879-.342A1.066,1.066,0,0,1,0,35.711V24.191a1.066,1.066,0,0,1,.371-.81A1.255,1.255,0,0,1,1.251,23.039Zm25.013,6.912h5a1.255,1.255,0,0,0,.879-.342,1.066,1.066,0,0,0,.371-.81V24.191a1.066,1.066,0,0,0-.371-.81,1.255,1.255,0,0,0-.879-.342h-5a1.255,1.255,0,0,0-.879.342,1.066,1.066,0,0,0-.371.81V28.8a1.066,1.066,0,0,0,.371.81A1.255,1.255,0,0,0,26.264,29.951ZM2.5,33.407a1.066,1.066,0,0,0,.371.81,1.255,1.255,0,0,0,.879.342h7.5a1.255,1.255,0,0,0,.879-.342,1.066,1.066,0,0,0,.371-.81V26.5a1.066,1.066,0,0,0-.371-.81,1.255,1.255,0,0,0-.879-.342h-7.5a1.255,1.255,0,0,0-.879.342,1.066,1.066,0,0,0-.371.81Zm3.752-5.76h2.5a1.255,1.255,0,0,1,.879.342,1.066,1.066,0,0,1,.371.81v2.3a1.066,1.066,0,0,1-.371.81,1.255,1.255,0,0,1-.879.342h-2.5a1.255,1.255,0,0,1-.879-.342A1.066,1.066,0,0,1,5,31.1V28.8a1.066,1.066,0,0,1,.371-.81A1.255,1.255,0,0,1,6.253,27.647Zm22.512-2.3a1.255,1.255,0,0,1,.879.342,1.069,1.069,0,0,1,0,1.62,1.3,1.3,0,0,1-1.759,0,1.069,1.069,0,0,1,0-1.62A1.255,1.255,0,0,1,28.765,25.343Zm-10.005,2.3a1.255,1.255,0,0,1,.879.342,1.069,1.069,0,0,1,0,1.62,1.3,1.3,0,0,1-1.759,0,1.069,1.069,0,0,1,0-1.62A1.255,1.255,0,0,1,18.76,27.647Zm2.5,6.912a1.255,1.255,0,0,1,.879.342,1.069,1.069,0,0,1,0,1.62,1.3,1.3,0,0,1-1.759,0,1.069,1.069,0,0,1,0-1.62A1.255,1.255,0,0,1,21.261,34.559Zm12.507,0h1.251V33.407a1.066,1.066,0,0,1,.371-.81,1.3,1.3,0,0,1,1.759,0,1.066,1.066,0,0,1,.371.81v1.152h1.251a1.255,1.255,0,0,1,.879.342,1.069,1.069,0,0,1,0,1.62,1.255,1.255,0,0,1-.879.342h-5a1.255,1.255,0,0,1-.879-.342,1.069,1.069,0,0,1,0-1.62A1.255,1.255,0,0,1,33.768,34.559Z" transform="translate(0)"/>
            </g>
            <g id="qrcode-10" data-name="qrcode" transform="translate(44.97)" opacity="0.08">
              <path id="Path_33879-10" data-name="Path 33879" d="M38.771,32.255a1.255,1.255,0,0,1-.879-.342,1.069,1.069,0,0,1,0-1.62,1.3,1.3,0,0,1,1.759,0,1.069,1.069,0,0,1,0,1.62A1.255,1.255,0,0,1,38.771,32.255Zm0-9.216a1.255,1.255,0,0,1-.879-.342,1.066,1.066,0,0,1-.371-.81v-2.3a1.066,1.066,0,0,1,.371-.81,1.3,1.3,0,0,1,1.759,0,1.066,1.066,0,0,1,.371.81v2.3a1.066,1.066,0,0,1-.371.81A1.255,1.255,0,0,1,38.771,23.039Zm0-9.216H37.52v1.152a1.066,1.066,0,0,1-.371.81,1.3,1.3,0,0,1-1.759,0,1.066,1.066,0,0,1-.371-.81V13.824h-5v1.152a1.066,1.066,0,0,1-.371.81,1.255,1.255,0,0,1-.879.342H27.515V17.28a1.066,1.066,0,0,1-.371.81,1.3,1.3,0,0,1-1.759,0,1.066,1.066,0,0,1-.371-.81V9.216H21.261a1.255,1.255,0,0,1-.879-.342,1.069,1.069,0,0,1,0-1.62,1.255,1.255,0,0,1,.879-.342h3.752V2.3h-2.5V3.456a1.066,1.066,0,0,1-.371.81,1.3,1.3,0,0,1-1.759,0,1.066,1.066,0,0,1-.371-.81v-2.3a1.066,1.066,0,0,1,.371-.81A1.255,1.255,0,0,1,21.261,0H38.771a1.255,1.255,0,0,1,.879.342,1.066,1.066,0,0,1,.371.81v11.52a1.066,1.066,0,0,1-.371.81A1.255,1.255,0,0,1,38.771,13.824ZM37.52,3.456a1.066,1.066,0,0,0-.371-.81,1.255,1.255,0,0,0-.879-.342h-7.5a1.255,1.255,0,0,0-.879.342,1.066,1.066,0,0,0-.371.81v6.912a1.066,1.066,0,0,0,.371.81,1.255,1.255,0,0,0,.879.342h7.5a1.255,1.255,0,0,0,.879-.342,1.066,1.066,0,0,0,.371-.81Zm-3.752,5.76h-2.5a1.255,1.255,0,0,1-.879-.342,1.066,1.066,0,0,1-.371-.81V5.76a1.066,1.066,0,0,1,.371-.81,1.255,1.255,0,0,1,.879-.342h2.5a1.255,1.255,0,0,1,.879.342,1.066,1.066,0,0,1,.371.81v2.3a1.066,1.066,0,0,1-.371.81A1.255,1.255,0,0,1,33.768,9.216Zm-13.757,2.3h1.251a1.255,1.255,0,0,1,.879.342,1.069,1.069,0,0,1,0,1.62,1.255,1.255,0,0,1-.879.342H17.509v1.152a1.066,1.066,0,0,1-.371.81,1.3,1.3,0,0,1-1.759,0,1.066,1.066,0,0,1-.371-.81V13.824H7.5v2.3h2.5V14.976a1.066,1.066,0,0,1,.371-.81,1.3,1.3,0,0,1,1.759,0,1.066,1.066,0,0,1,.371.81v3.456h1.251a1.255,1.255,0,0,1,.879.342,1.069,1.069,0,0,1,0,1.62,1.255,1.255,0,0,1-.879.342h-2.5a1.255,1.255,0,0,1-.879-.342,1.066,1.066,0,0,1-.371-.81V18.431H6.253a1.339,1.339,0,0,1-.879-.306A.926.926,0,0,1,5,17.388V13.824H2.5v1.26a.926.926,0,0,1-.371.738,1.339,1.339,0,0,1-.879.306,1.339,1.339,0,0,1-.879-.306A.926.926,0,0,1,0,15.084v-2.16a.3.3,0,0,1,.039-.144.07.07,0,0,0-.02-.054A.07.07,0,0,1,0,12.672V1.152A1.066,1.066,0,0,1,.371.342,1.255,1.255,0,0,1,1.251,0H13.757a1.255,1.255,0,0,1,.879.342,1.066,1.066,0,0,1,.371.81V2.3h1.251a1.255,1.255,0,0,1,.879.342,1.069,1.069,0,0,1,0,1.62,1.255,1.255,0,0,1-.879.342H15.008v2.3h1.251a1.255,1.255,0,0,1,.879.342,1.069,1.069,0,0,1,0,1.62,1.255,1.255,0,0,1-.879.342H15.008v2.3h2.5V10.368a1.066,1.066,0,0,1,.371-.81,1.3,1.3,0,0,1,1.759,0,1.066,1.066,0,0,1,.371.81Zm-7.5-8.064a1.066,1.066,0,0,0-.371-.81,1.255,1.255,0,0,0-.879-.342h-7.5a1.255,1.255,0,0,0-.879.342,1.066,1.066,0,0,0-.371.81v6.912a1.066,1.066,0,0,0,.371.81,1.255,1.255,0,0,0,.879.342h7.5a1.255,1.255,0,0,0,.879-.342,1.066,1.066,0,0,0,.371-.81ZM8.755,9.216h-2.5a1.255,1.255,0,0,1-.879-.342A1.066,1.066,0,0,1,5,8.064V5.76a1.066,1.066,0,0,1,.371-.81,1.255,1.255,0,0,1,.879-.342h2.5a1.255,1.255,0,0,1,.879.342,1.066,1.066,0,0,1,.371.81v2.3a1.066,1.066,0,0,1-.371.81A1.255,1.255,0,0,1,8.755,9.216Zm-7.5,9.216a1.255,1.255,0,0,1,.879.342,1.069,1.069,0,0,1,0,1.62,1.255,1.255,0,0,1-.879.342,1.255,1.255,0,0,1-.879-.342,1.069,1.069,0,0,1,0-1.62A1.255,1.255,0,0,1,1.251,18.431Zm17.509,2.3a1.255,1.255,0,0,1-.879-.342,1.069,1.069,0,0,1,0-1.62,1.3,1.3,0,0,1,1.759,0,1.069,1.069,0,0,1,0,1.62A1.255,1.255,0,0,1,18.76,20.735Zm2.5-4.608a1.255,1.255,0,0,1,.879.342,1.069,1.069,0,0,1,0,1.62,1.3,1.3,0,0,1-1.759,0,1.069,1.069,0,0,1,0-1.62A1.255,1.255,0,0,1,21.261,16.128Zm8.755,1.152a1.066,1.066,0,0,1,.371-.81,1.3,1.3,0,0,1,1.759,0,1.069,1.069,0,0,1,0,1.62,1.3,1.3,0,0,1-1.759,0A1.066,1.066,0,0,1,30.016,17.28ZM1.251,23.039H5V21.887a1.066,1.066,0,0,1,.371-.81,1.3,1.3,0,0,1,1.759,0,1.066,1.066,0,0,1,.371.81v1.152h6.253a1.255,1.255,0,0,1,.879.342,1.066,1.066,0,0,1,.371.81v-2.3a1.066,1.066,0,0,1,.371-.81,1.3,1.3,0,0,1,1.759,0,1.066,1.066,0,0,1,.371.81v2.3h5v-2.3a1.066,1.066,0,0,1,.371-.81,1.255,1.255,0,0,1,.879-.342h8.755V19.583a1.066,1.066,0,0,1,.371-.81,1.3,1.3,0,0,1,1.759,0,1.066,1.066,0,0,1,.371.81v5.76h1.251a1.255,1.255,0,0,1,.879.342,1.069,1.069,0,0,1,0,1.62,1.255,1.255,0,0,1-.879.342H35.019V31.1a1.066,1.066,0,0,1-.371.81,1.255,1.255,0,0,1-.879.342H30.016v3.456a1.066,1.066,0,0,1-.371.81,1.3,1.3,0,0,1-1.759,0,1.066,1.066,0,0,1-.371-.81V32.255h-2.5v1.152a1.066,1.066,0,0,1-.371.81,1.3,1.3,0,0,1-1.759,0,1.066,1.066,0,0,1-.371-.81V32.255H21.261a1.255,1.255,0,0,1-.879-.342,1.069,1.069,0,0,1,0-1.62,1.255,1.255,0,0,1,.879-.342h1.251V26.5h-7.5v5.76h1.251a1.255,1.255,0,0,1,.879.342,1.069,1.069,0,0,1,0,1.62,1.255,1.255,0,0,1-.879.342H15.008v1.152a1.066,1.066,0,0,1-.371.81,1.255,1.255,0,0,1-.879.342H1.251a1.255,1.255,0,0,1-.879-.342A1.066,1.066,0,0,1,0,35.711V24.191a1.066,1.066,0,0,1,.371-.81A1.255,1.255,0,0,1,1.251,23.039Zm25.013,6.912h5a1.255,1.255,0,0,0,.879-.342,1.066,1.066,0,0,0,.371-.81V24.191a1.066,1.066,0,0,0-.371-.81,1.255,1.255,0,0,0-.879-.342h-5a1.255,1.255,0,0,0-.879.342,1.066,1.066,0,0,0-.371.81V28.8a1.066,1.066,0,0,0,.371.81A1.255,1.255,0,0,0,26.264,29.951ZM2.5,33.407a1.066,1.066,0,0,0,.371.81,1.255,1.255,0,0,0,.879.342h7.5a1.255,1.255,0,0,0,.879-.342,1.066,1.066,0,0,0,.371-.81V26.5a1.066,1.066,0,0,0-.371-.81,1.255,1.255,0,0,0-.879-.342h-7.5a1.255,1.255,0,0,0-.879.342,1.066,1.066,0,0,0-.371.81Zm3.752-5.76h2.5a1.255,1.255,0,0,1,.879.342,1.066,1.066,0,0,1,.371.81v2.3a1.066,1.066,0,0,1-.371.81,1.255,1.255,0,0,1-.879.342h-2.5a1.255,1.255,0,0,1-.879-.342A1.066,1.066,0,0,1,5,31.1V28.8a1.066,1.066,0,0,1,.371-.81A1.255,1.255,0,0,1,6.253,27.647Zm22.512-2.3a1.255,1.255,0,0,1,.879.342,1.069,1.069,0,0,1,0,1.62,1.3,1.3,0,0,1-1.759,0,1.069,1.069,0,0,1,0-1.62A1.255,1.255,0,0,1,28.765,25.343Zm-10.005,2.3a1.255,1.255,0,0,1,.879.342,1.069,1.069,0,0,1,0,1.62,1.3,1.3,0,0,1-1.759,0,1.069,1.069,0,0,1,0-1.62A1.255,1.255,0,0,1,18.76,27.647Zm2.5,6.912a1.255,1.255,0,0,1,.879.342,1.069,1.069,0,0,1,0,1.62,1.3,1.3,0,0,1-1.759,0,1.069,1.069,0,0,1,0-1.62A1.255,1.255,0,0,1,21.261,34.559Zm12.507,0h1.251V33.407a1.066,1.066,0,0,1,.371-.81,1.3,1.3,0,0,1,1.759,0,1.066,1.066,0,0,1,.371.81v1.152h1.251a1.255,1.255,0,0,1,.879.342,1.069,1.069,0,0,1,0,1.62,1.255,1.255,0,0,1-.879.342h-5a1.255,1.255,0,0,1-.879-.342,1.069,1.069,0,0,1,0-1.62A1.255,1.255,0,0,1,33.768,34.559Z" transform="translate(0)"/>
            </g>
          </g>
          <g id="Group_39954-3" data-name="Group 39954" transform="translate(0 36.863)">
            <g id="qrcode-11" data-name="qrcode" opacity="0.08">
              <path id="Path_33879-11" data-name="Path 33879" d="M38.771,32.255a1.255,1.255,0,0,1-.879-.342,1.069,1.069,0,0,1,0-1.62,1.3,1.3,0,0,1,1.759,0,1.069,1.069,0,0,1,0,1.62A1.255,1.255,0,0,1,38.771,32.255Zm0-9.216a1.255,1.255,0,0,1-.879-.342,1.066,1.066,0,0,1-.371-.81v-2.3a1.066,1.066,0,0,1,.371-.81,1.3,1.3,0,0,1,1.759,0,1.066,1.066,0,0,1,.371.81v2.3a1.066,1.066,0,0,1-.371.81A1.255,1.255,0,0,1,38.771,23.039Zm0-9.216H37.52v1.152a1.066,1.066,0,0,1-.371.81,1.3,1.3,0,0,1-1.759,0,1.066,1.066,0,0,1-.371-.81V13.824h-5v1.152a1.066,1.066,0,0,1-.371.81,1.255,1.255,0,0,1-.879.342H27.515V17.28a1.066,1.066,0,0,1-.371.81,1.3,1.3,0,0,1-1.759,0,1.066,1.066,0,0,1-.371-.81V9.216H21.261a1.255,1.255,0,0,1-.879-.342,1.069,1.069,0,0,1,0-1.62,1.255,1.255,0,0,1,.879-.342h3.752V2.3h-2.5V3.456a1.066,1.066,0,0,1-.371.81,1.3,1.3,0,0,1-1.759,0,1.066,1.066,0,0,1-.371-.81v-2.3a1.066,1.066,0,0,1,.371-.81A1.255,1.255,0,0,1,21.261,0H38.771a1.255,1.255,0,0,1,.879.342,1.066,1.066,0,0,1,.371.81v11.52a1.066,1.066,0,0,1-.371.81A1.255,1.255,0,0,1,38.771,13.824ZM37.52,3.456a1.066,1.066,0,0,0-.371-.81,1.255,1.255,0,0,0-.879-.342h-7.5a1.255,1.255,0,0,0-.879.342,1.066,1.066,0,0,0-.371.81v6.912a1.066,1.066,0,0,0,.371.81,1.255,1.255,0,0,0,.879.342h7.5a1.255,1.255,0,0,0,.879-.342,1.066,1.066,0,0,0,.371-.81Zm-3.752,5.76h-2.5a1.255,1.255,0,0,1-.879-.342,1.066,1.066,0,0,1-.371-.81V5.76a1.066,1.066,0,0,1,.371-.81,1.255,1.255,0,0,1,.879-.342h2.5a1.255,1.255,0,0,1,.879.342,1.066,1.066,0,0,1,.371.81v2.3a1.066,1.066,0,0,1-.371.81A1.255,1.255,0,0,1,33.768,9.216Zm-13.757,2.3h1.251a1.255,1.255,0,0,1,.879.342,1.069,1.069,0,0,1,0,1.62,1.255,1.255,0,0,1-.879.342H17.509v1.152a1.066,1.066,0,0,1-.371.81,1.3,1.3,0,0,1-1.759,0,1.066,1.066,0,0,1-.371-.81V13.824H7.5v2.3h2.5V14.976a1.066,1.066,0,0,1,.371-.81,1.3,1.3,0,0,1,1.759,0,1.066,1.066,0,0,1,.371.81v3.456h1.251a1.255,1.255,0,0,1,.879.342,1.069,1.069,0,0,1,0,1.62,1.255,1.255,0,0,1-.879.342h-2.5a1.255,1.255,0,0,1-.879-.342,1.066,1.066,0,0,1-.371-.81V18.431H6.253a1.339,1.339,0,0,1-.879-.306A.926.926,0,0,1,5,17.388V13.824H2.5v1.26a.926.926,0,0,1-.371.738,1.339,1.339,0,0,1-.879.306,1.339,1.339,0,0,1-.879-.306A.926.926,0,0,1,0,15.084v-2.16a.3.3,0,0,1,.039-.144.07.07,0,0,0-.02-.054A.07.07,0,0,1,0,12.672V1.152A1.066,1.066,0,0,1,.371.342,1.255,1.255,0,0,1,1.251,0H13.757a1.255,1.255,0,0,1,.879.342,1.066,1.066,0,0,1,.371.81V2.3h1.251a1.255,1.255,0,0,1,.879.342,1.069,1.069,0,0,1,0,1.62,1.255,1.255,0,0,1-.879.342H15.008v2.3h1.251a1.255,1.255,0,0,1,.879.342,1.069,1.069,0,0,1,0,1.62,1.255,1.255,0,0,1-.879.342H15.008v2.3h2.5V10.368a1.066,1.066,0,0,1,.371-.81,1.3,1.3,0,0,1,1.759,0,1.066,1.066,0,0,1,.371.81Zm-7.5-8.064a1.066,1.066,0,0,0-.371-.81,1.255,1.255,0,0,0-.879-.342h-7.5a1.255,1.255,0,0,0-.879.342,1.066,1.066,0,0,0-.371.81v6.912a1.066,1.066,0,0,0,.371.81,1.255,1.255,0,0,0,.879.342h7.5a1.255,1.255,0,0,0,.879-.342,1.066,1.066,0,0,0,.371-.81ZM8.755,9.216h-2.5a1.255,1.255,0,0,1-.879-.342A1.066,1.066,0,0,1,5,8.064V5.76a1.066,1.066,0,0,1,.371-.81,1.255,1.255,0,0,1,.879-.342h2.5a1.255,1.255,0,0,1,.879.342,1.066,1.066,0,0,1,.371.81v2.3a1.066,1.066,0,0,1-.371.81A1.255,1.255,0,0,1,8.755,9.216Zm-7.5,9.216a1.255,1.255,0,0,1,.879.342,1.069,1.069,0,0,1,0,1.62,1.255,1.255,0,0,1-.879.342,1.255,1.255,0,0,1-.879-.342,1.069,1.069,0,0,1,0-1.62A1.255,1.255,0,0,1,1.251,18.431Zm17.509,2.3a1.255,1.255,0,0,1-.879-.342,1.069,1.069,0,0,1,0-1.62,1.3,1.3,0,0,1,1.759,0,1.069,1.069,0,0,1,0,1.62A1.255,1.255,0,0,1,18.76,20.735Zm2.5-4.608a1.255,1.255,0,0,1,.879.342,1.069,1.069,0,0,1,0,1.62,1.3,1.3,0,0,1-1.759,0,1.069,1.069,0,0,1,0-1.62A1.255,1.255,0,0,1,21.261,16.128Zm8.755,1.152a1.066,1.066,0,0,1,.371-.81,1.3,1.3,0,0,1,1.759,0,1.069,1.069,0,0,1,0,1.62,1.3,1.3,0,0,1-1.759,0A1.066,1.066,0,0,1,30.016,17.28ZM1.251,23.039H5V21.887a1.066,1.066,0,0,1,.371-.81,1.3,1.3,0,0,1,1.759,0,1.066,1.066,0,0,1,.371.81v1.152h6.253a1.255,1.255,0,0,1,.879.342,1.066,1.066,0,0,1,.371.81v-2.3a1.066,1.066,0,0,1,.371-.81,1.3,1.3,0,0,1,1.759,0,1.066,1.066,0,0,1,.371.81v2.3h5v-2.3a1.066,1.066,0,0,1,.371-.81,1.255,1.255,0,0,1,.879-.342h8.755V19.583a1.066,1.066,0,0,1,.371-.81,1.3,1.3,0,0,1,1.759,0,1.066,1.066,0,0,1,.371.81v5.76h1.251a1.255,1.255,0,0,1,.879.342,1.069,1.069,0,0,1,0,1.62,1.255,1.255,0,0,1-.879.342H35.019V31.1a1.066,1.066,0,0,1-.371.81,1.255,1.255,0,0,1-.879.342H30.016v3.456a1.066,1.066,0,0,1-.371.81,1.3,1.3,0,0,1-1.759,0,1.066,1.066,0,0,1-.371-.81V32.255h-2.5v1.152a1.066,1.066,0,0,1-.371.81,1.3,1.3,0,0,1-1.759,0,1.066,1.066,0,0,1-.371-.81V32.255H21.261a1.255,1.255,0,0,1-.879-.342,1.069,1.069,0,0,1,0-1.62,1.255,1.255,0,0,1,.879-.342h1.251V26.5h-7.5v5.76h1.251a1.255,1.255,0,0,1,.879.342,1.069,1.069,0,0,1,0,1.62,1.255,1.255,0,0,1-.879.342H15.008v1.152a1.066,1.066,0,0,1-.371.81,1.255,1.255,0,0,1-.879.342H1.251a1.255,1.255,0,0,1-.879-.342A1.066,1.066,0,0,1,0,35.711V24.191a1.066,1.066,0,0,1,.371-.81A1.255,1.255,0,0,1,1.251,23.039Zm25.013,6.912h5a1.255,1.255,0,0,0,.879-.342,1.066,1.066,0,0,0,.371-.81V24.191a1.066,1.066,0,0,0-.371-.81,1.255,1.255,0,0,0-.879-.342h-5a1.255,1.255,0,0,0-.879.342,1.066,1.066,0,0,0-.371.81V28.8a1.066,1.066,0,0,0,.371.81A1.255,1.255,0,0,0,26.264,29.951ZM2.5,33.407a1.066,1.066,0,0,0,.371.81,1.255,1.255,0,0,0,.879.342h7.5a1.255,1.255,0,0,0,.879-.342,1.066,1.066,0,0,0,.371-.81V26.5a1.066,1.066,0,0,0-.371-.81,1.255,1.255,0,0,0-.879-.342h-7.5a1.255,1.255,0,0,0-.879.342,1.066,1.066,0,0,0-.371.81Zm3.752-5.76h2.5a1.255,1.255,0,0,1,.879.342,1.066,1.066,0,0,1,.371.81v2.3a1.066,1.066,0,0,1-.371.81,1.255,1.255,0,0,1-.879.342h-2.5a1.255,1.255,0,0,1-.879-.342A1.066,1.066,0,0,1,5,31.1V28.8a1.066,1.066,0,0,1,.371-.81A1.255,1.255,0,0,1,6.253,27.647Zm22.512-2.3a1.255,1.255,0,0,1,.879.342,1.069,1.069,0,0,1,0,1.62,1.3,1.3,0,0,1-1.759,0,1.069,1.069,0,0,1,0-1.62A1.255,1.255,0,0,1,28.765,25.343Zm-10.005,2.3a1.255,1.255,0,0,1,.879.342,1.069,1.069,0,0,1,0,1.62,1.3,1.3,0,0,1-1.759,0,1.069,1.069,0,0,1,0-1.62A1.255,1.255,0,0,1,18.76,27.647Zm2.5,6.912a1.255,1.255,0,0,1,.879.342,1.069,1.069,0,0,1,0,1.62,1.3,1.3,0,0,1-1.759,0,1.069,1.069,0,0,1,0-1.62A1.255,1.255,0,0,1,21.261,34.559Zm12.507,0h1.251V33.407a1.066,1.066,0,0,1,.371-.81,1.3,1.3,0,0,1,1.759,0,1.066,1.066,0,0,1,.371.81v1.152h1.251a1.255,1.255,0,0,1,.879.342,1.069,1.069,0,0,1,0,1.62,1.255,1.255,0,0,1-.879.342h-5a1.255,1.255,0,0,1-.879-.342,1.069,1.069,0,0,1,0-1.62A1.255,1.255,0,0,1,33.768,34.559Z" transform="translate(0)"/>
            </g>
            <g id="qrcode-12" data-name="qrcode" transform="translate(44.97)" opacity="0.08">
              <path id="Path_33879-12" data-name="Path 33879" d="M38.771,32.255a1.255,1.255,0,0,1-.879-.342,1.069,1.069,0,0,1,0-1.62,1.3,1.3,0,0,1,1.759,0,1.069,1.069,0,0,1,0,1.62A1.255,1.255,0,0,1,38.771,32.255Zm0-9.216a1.255,1.255,0,0,1-.879-.342,1.066,1.066,0,0,1-.371-.81v-2.3a1.066,1.066,0,0,1,.371-.81,1.3,1.3,0,0,1,1.759,0,1.066,1.066,0,0,1,.371.81v2.3a1.066,1.066,0,0,1-.371.81A1.255,1.255,0,0,1,38.771,23.039Zm0-9.216H37.52v1.152a1.066,1.066,0,0,1-.371.81,1.3,1.3,0,0,1-1.759,0,1.066,1.066,0,0,1-.371-.81V13.824h-5v1.152a1.066,1.066,0,0,1-.371.81,1.255,1.255,0,0,1-.879.342H27.515V17.28a1.066,1.066,0,0,1-.371.81,1.3,1.3,0,0,1-1.759,0,1.066,1.066,0,0,1-.371-.81V9.216H21.261a1.255,1.255,0,0,1-.879-.342,1.069,1.069,0,0,1,0-1.62,1.255,1.255,0,0,1,.879-.342h3.752V2.3h-2.5V3.456a1.066,1.066,0,0,1-.371.81,1.3,1.3,0,0,1-1.759,0,1.066,1.066,0,0,1-.371-.81v-2.3a1.066,1.066,0,0,1,.371-.81A1.255,1.255,0,0,1,21.261,0H38.771a1.255,1.255,0,0,1,.879.342,1.066,1.066,0,0,1,.371.81v11.52a1.066,1.066,0,0,1-.371.81A1.255,1.255,0,0,1,38.771,13.824ZM37.52,3.456a1.066,1.066,0,0,0-.371-.81,1.255,1.255,0,0,0-.879-.342h-7.5a1.255,1.255,0,0,0-.879.342,1.066,1.066,0,0,0-.371.81v6.912a1.066,1.066,0,0,0,.371.81,1.255,1.255,0,0,0,.879.342h7.5a1.255,1.255,0,0,0,.879-.342,1.066,1.066,0,0,0,.371-.81Zm-3.752,5.76h-2.5a1.255,1.255,0,0,1-.879-.342,1.066,1.066,0,0,1-.371-.81V5.76a1.066,1.066,0,0,1,.371-.81,1.255,1.255,0,0,1,.879-.342h2.5a1.255,1.255,0,0,1,.879.342,1.066,1.066,0,0,1,.371.81v2.3a1.066,1.066,0,0,1-.371.81A1.255,1.255,0,0,1,33.768,9.216Zm-13.757,2.3h1.251a1.255,1.255,0,0,1,.879.342,1.069,1.069,0,0,1,0,1.62,1.255,1.255,0,0,1-.879.342H17.509v1.152a1.066,1.066,0,0,1-.371.81,1.3,1.3,0,0,1-1.759,0,1.066,1.066,0,0,1-.371-.81V13.824H7.5v2.3h2.5V14.976a1.066,1.066,0,0,1,.371-.81,1.3,1.3,0,0,1,1.759,0,1.066,1.066,0,0,1,.371.81v3.456h1.251a1.255,1.255,0,0,1,.879.342,1.069,1.069,0,0,1,0,1.62,1.255,1.255,0,0,1-.879.342h-2.5a1.255,1.255,0,0,1-.879-.342,1.066,1.066,0,0,1-.371-.81V18.431H6.253a1.339,1.339,0,0,1-.879-.306A.926.926,0,0,1,5,17.388V13.824H2.5v1.26a.926.926,0,0,1-.371.738,1.339,1.339,0,0,1-.879.306,1.339,1.339,0,0,1-.879-.306A.926.926,0,0,1,0,15.084v-2.16a.3.3,0,0,1,.039-.144.07.07,0,0,0-.02-.054A.07.07,0,0,1,0,12.672V1.152A1.066,1.066,0,0,1,.371.342,1.255,1.255,0,0,1,1.251,0H13.757a1.255,1.255,0,0,1,.879.342,1.066,1.066,0,0,1,.371.81V2.3h1.251a1.255,1.255,0,0,1,.879.342,1.069,1.069,0,0,1,0,1.62,1.255,1.255,0,0,1-.879.342H15.008v2.3h1.251a1.255,1.255,0,0,1,.879.342,1.069,1.069,0,0,1,0,1.62,1.255,1.255,0,0,1-.879.342H15.008v2.3h2.5V10.368a1.066,1.066,0,0,1,.371-.81,1.3,1.3,0,0,1,1.759,0,1.066,1.066,0,0,1,.371.81Zm-7.5-8.064a1.066,1.066,0,0,0-.371-.81,1.255,1.255,0,0,0-.879-.342h-7.5a1.255,1.255,0,0,0-.879.342,1.066,1.066,0,0,0-.371.81v6.912a1.066,1.066,0,0,0,.371.81,1.255,1.255,0,0,0,.879.342h7.5a1.255,1.255,0,0,0,.879-.342,1.066,1.066,0,0,0,.371-.81ZM8.755,9.216h-2.5a1.255,1.255,0,0,1-.879-.342A1.066,1.066,0,0,1,5,8.064V5.76a1.066,1.066,0,0,1,.371-.81,1.255,1.255,0,0,1,.879-.342h2.5a1.255,1.255,0,0,1,.879.342,1.066,1.066,0,0,1,.371.81v2.3a1.066,1.066,0,0,1-.371.81A1.255,1.255,0,0,1,8.755,9.216Zm-7.5,9.216a1.255,1.255,0,0,1,.879.342,1.069,1.069,0,0,1,0,1.62,1.255,1.255,0,0,1-.879.342,1.255,1.255,0,0,1-.879-.342,1.069,1.069,0,0,1,0-1.62A1.255,1.255,0,0,1,1.251,18.431Zm17.509,2.3a1.255,1.255,0,0,1-.879-.342,1.069,1.069,0,0,1,0-1.62,1.3,1.3,0,0,1,1.759,0,1.069,1.069,0,0,1,0,1.62A1.255,1.255,0,0,1,18.76,20.735Zm2.5-4.608a1.255,1.255,0,0,1,.879.342,1.069,1.069,0,0,1,0,1.62,1.3,1.3,0,0,1-1.759,0,1.069,1.069,0,0,1,0-1.62A1.255,1.255,0,0,1,21.261,16.128Zm8.755,1.152a1.066,1.066,0,0,1,.371-.81,1.3,1.3,0,0,1,1.759,0,1.069,1.069,0,0,1,0,1.62,1.3,1.3,0,0,1-1.759,0A1.066,1.066,0,0,1,30.016,17.28ZM1.251,23.039H5V21.887a1.066,1.066,0,0,1,.371-.81,1.3,1.3,0,0,1,1.759,0,1.066,1.066,0,0,1,.371.81v1.152h6.253a1.255,1.255,0,0,1,.879.342,1.066,1.066,0,0,1,.371.81v-2.3a1.066,1.066,0,0,1,.371-.81,1.3,1.3,0,0,1,1.759,0,1.066,1.066,0,0,1,.371.81v2.3h5v-2.3a1.066,1.066,0,0,1,.371-.81,1.255,1.255,0,0,1,.879-.342h8.755V19.583a1.066,1.066,0,0,1,.371-.81,1.3,1.3,0,0,1,1.759,0,1.066,1.066,0,0,1,.371.81v5.76h1.251a1.255,1.255,0,0,1,.879.342,1.069,1.069,0,0,1,0,1.62,1.255,1.255,0,0,1-.879.342H35.019V31.1a1.066,1.066,0,0,1-.371.81,1.255,1.255,0,0,1-.879.342H30.016v3.456a1.066,1.066,0,0,1-.371.81,1.3,1.3,0,0,1-1.759,0,1.066,1.066,0,0,1-.371-.81V32.255h-2.5v1.152a1.066,1.066,0,0,1-.371.81,1.3,1.3,0,0,1-1.759,0,1.066,1.066,0,0,1-.371-.81V32.255H21.261a1.255,1.255,0,0,1-.879-.342,1.069,1.069,0,0,1,0-1.62,1.255,1.255,0,0,1,.879-.342h1.251V26.5h-7.5v5.76h1.251a1.255,1.255,0,0,1,.879.342,1.069,1.069,0,0,1,0,1.62,1.255,1.255,0,0,1-.879.342H15.008v1.152a1.066,1.066,0,0,1-.371.81,1.255,1.255,0,0,1-.879.342H1.251a1.255,1.255,0,0,1-.879-.342A1.066,1.066,0,0,1,0,35.711V24.191a1.066,1.066,0,0,1,.371-.81A1.255,1.255,0,0,1,1.251,23.039Zm25.013,6.912h5a1.255,1.255,0,0,0,.879-.342,1.066,1.066,0,0,0,.371-.81V24.191a1.066,1.066,0,0,0-.371-.81,1.255,1.255,0,0,0-.879-.342h-5a1.255,1.255,0,0,0-.879.342,1.066,1.066,0,0,0-.371.81V28.8a1.066,1.066,0,0,0,.371.81A1.255,1.255,0,0,0,26.264,29.951ZM2.5,33.407a1.066,1.066,0,0,0,.371.81,1.255,1.255,0,0,0,.879.342h7.5a1.255,1.255,0,0,0,.879-.342,1.066,1.066,0,0,0,.371-.81V26.5a1.066,1.066,0,0,0-.371-.81,1.255,1.255,0,0,0-.879-.342h-7.5a1.255,1.255,0,0,0-.879.342,1.066,1.066,0,0,0-.371.81Zm3.752-5.76h2.5a1.255,1.255,0,0,1,.879.342,1.066,1.066,0,0,1,.371.81v2.3a1.066,1.066,0,0,1-.371.81,1.255,1.255,0,0,1-.879.342h-2.5a1.255,1.255,0,0,1-.879-.342A1.066,1.066,0,0,1,5,31.1V28.8a1.066,1.066,0,0,1,.371-.81A1.255,1.255,0,0,1,6.253,27.647Zm22.512-2.3a1.255,1.255,0,0,1,.879.342,1.069,1.069,0,0,1,0,1.62,1.3,1.3,0,0,1-1.759,0,1.069,1.069,0,0,1,0-1.62A1.255,1.255,0,0,1,28.765,25.343Zm-10.005,2.3a1.255,1.255,0,0,1,.879.342,1.069,1.069,0,0,1,0,1.62,1.3,1.3,0,0,1-1.759,0,1.069,1.069,0,0,1,0-1.62A1.255,1.255,0,0,1,18.76,27.647Zm2.5,6.912a1.255,1.255,0,0,1,.879.342,1.069,1.069,0,0,1,0,1.62,1.3,1.3,0,0,1-1.759,0,1.069,1.069,0,0,1,0-1.62A1.255,1.255,0,0,1,21.261,34.559Zm12.507,0h1.251V33.407a1.066,1.066,0,0,1,.371-.81,1.3,1.3,0,0,1,1.759,0,1.066,1.066,0,0,1,.371.81v1.152h1.251a1.255,1.255,0,0,1,.879.342,1.069,1.069,0,0,1,0,1.62,1.255,1.255,0,0,1-.879.342h-5a1.255,1.255,0,0,1-.879-.342,1.069,1.069,0,0,1,0-1.62A1.255,1.255,0,0,1,33.768,34.559Z" transform="translate(0)"/>
            </g>
          </g>
        </g>
      </g>
    </g>
  </g>
</svg>
