<svg xmlns="http://www.w3.org/2000/svg" width="18.923" height="24.534" viewBox="0 0 18.923 24.534">
  <path id="ic_lock_open_24px" d="M13.462,19.693A2.337,2.337,0,1,0,11.1,17.356,2.358,2.358,0,0,0,13.462,19.693Zm7.1-10.515H19.375V6.841a5.914,5.914,0,0,0-11.827,0H9.8a3.667,3.667,0,0,1,7.333,0V9.178H6.365A2.358,2.358,0,0,0,4,11.515V23.2a2.358,2.358,0,0,0,2.365,2.337H20.558A2.358,2.358,0,0,0,22.923,23.2V11.515A2.358,2.358,0,0,0,20.558,9.178Zm0,14.02H6.365V11.515H20.558Z" transform="translate(-4 -1)" fill="#0a6dca"/>
</svg>
