<svg xmlns="http://www.w3.org/2000/svg" width="23.431" height="23.431" viewBox="0 0 23.431 23.431">
  <path id="ic_perm_identity_24px" d="M15.716,6.782A3.075,3.075,0,1,1,12.64,9.858a3.075,3.075,0,0,1,3.075-3.075m0,13.18c4.349,0,8.933,2.138,8.933,3.075v1.611H6.782V23.038c0-.937,4.584-3.075,8.933-3.075M15.716,4a5.858,5.858,0,1,0,5.858,5.858A5.856,5.856,0,0,0,15.716,4Zm0,13.18C11.806,17.18,4,19.143,4,23.038v4.393H27.431V23.038C27.431,19.143,19.626,17.18,15.716,17.18Z" transform="translate(-4 -4)" fill="#0a6dca"/>
</svg>
