<svg xmlns="http://www.w3.org/2000/svg" width="23.1" height="19.959" viewBox="0 0 23.1 19.959">
  <path id="ic_visibility_off_24px" d="M12.555,7.2a5.254,5.254,0,0,1,5.252,5.252,5.1,5.1,0,0,1-.378,1.922L20.5,17.444a12.414,12.414,0,0,0,3.6-4.99A12.424,12.424,0,0,0,12.545,4.576a12.233,12.233,0,0,0-4.181.735L10.633,7.58A5.1,5.1,0,0,1,12.555,7.2ZM2.05,4.334l2.4,2.4.483.483A12.4,12.4,0,0,0,1,12.454a12.418,12.418,0,0,0,16.156,7l.441.441,3.078,3.067,1.334-1.334L3.385,3ZM7.86,10.143l1.628,1.628a2.964,2.964,0,0,0-.084.683,3.147,3.147,0,0,0,3.151,3.151,2.964,2.964,0,0,0,.683-.084l1.628,1.628A5.218,5.218,0,0,1,7.86,10.143Zm4.528-.819L15.7,12.633l.021-.168a3.147,3.147,0,0,0-3.151-3.151Z" transform="translate(-1 -3)" fill="#818181" opacity="0.4"/>
</svg>
