<svg xmlns="http://www.w3.org/2000/svg" xmlns:xlink="http://www.w3.org/1999/xlink" width="216" height="253" viewBox="0 0 216 253">
  <defs>
    <clipPath id="clip-path">
      <rect id="Rectangle_3539" data-name="Rectangle 3539" width="216" height="253" transform="translate(1704)" fill="#fff"/>
    </clipPath>
  </defs>
  <g id="Mask_Group_23" data-name="Mask Group 23" transform="translate(-1704)" clip-path="url(#clip-path)">
    <path id="Rectangle_3471" data-name="Rectangle 3471" d="M0,0H409.426a0,0,0,0,1,0,0V434.454a61,61,0,0,1-61,61H61a61,61,0,0,1-61-61V0A0,0,0,0,1,0,0Z" transform="matrix(0.899, 0.438, -0.438, 0.899, 1906.193, -356.637)" fill="#0a6dca"/>
    <path id="Rectangle_3528" data-name="Rectangle 3528" d="M0,0H409.426a0,0,0,0,1,0,0V434.454a61,61,0,0,1-61,61H61a61,61,0,0,1-61-61V0A0,0,0,0,1,0,0Z" transform="matrix(0.899, 0.438, -0.438, 0.899, 1954.628, -267.486)" fill="#0a6dca" opacity="0.2"/>
  </g>
</svg>
