<svg xmlns="http://www.w3.org/2000/svg" width="24.998" height="25.105" viewBox="0 0 24.998 25.105">
  <g id="noun_Rotate_1344202" transform="translate(0.5 0.5)">
    <path id="Path_981" data-name="Path 981" d="M26.814,26.962a.789.789,0,0,1-.8.8H22.8a.789.789,0,0,1-.8-.8V23.775a.8.8,0,0,1,1.607,0v1.42A10.4,10.4,0,0,0,17.2,6.607.8.8,0,0,1,17.2,5a11.993,11.993,0,0,1,7.74,21.159h1.071A.824.824,0,0,1,26.814,26.962ZM17.2,27.5A10.4,10.4,0,0,1,10.8,8.91v1.42a.8.8,0,0,0,1.607,0V7.143a.789.789,0,0,0-.8-.8H8.387a.8.8,0,0,0,0,1.607H9.459A11.993,11.993,0,0,0,17.2,29.1a.8.8,0,1,0,0-1.607Z" transform="translate(-5.2 -5)" fill="#0a6dca" stroke="#0a6dca" stroke-width="1"/>
  </g>
</svg>
