<svg id="qr-code-scan" xmlns="http://www.w3.org/2000/svg" width="26.39" height="26.39" viewBox="0 0 26.39 26.39">
  <g id="Group_39959" data-name="Group 39959">
    <path id="Path_33880" data-name="Path 33880" d="M0,.825A.825.825,0,0,1,.825,0H5.773a.825.825,0,1,1,0,1.649H1.649V5.773A.825.825,0,1,1,0,5.773Zm19.793,0A.825.825,0,0,1,20.617,0h4.948a.825.825,0,0,1,.825.825V5.773a.825.825,0,1,1-1.649,0V1.649H20.617a.825.825,0,0,1-.825-.825ZM.825,19.793a.825.825,0,0,1,.825.825v4.123H5.773a.825.825,0,1,1,0,1.649H.825A.825.825,0,0,1,0,25.566V20.617a.825.825,0,0,1,.825-.825Zm24.741,0a.825.825,0,0,1,.825.825v4.948a.825.825,0,0,1-.825.825H20.617a.825.825,0,0,1,0-1.649h4.123V20.617A.825.825,0,0,1,25.566,19.793ZM6.6,6.6H8.247V8.247H6.6Z" fill="#0a6dca"/>
    <path id="Path_33881" data-name="Path 33881" d="M14.247,6H6v8.247h8.247Zm-6.6,1.649H12.6V12.6H7.649Zm3.3,13.2H9.3v1.649h1.649Z" transform="translate(-2.701 -2.701)" fill="#0a6dca"/>
    <path id="Path_33882" data-name="Path 33882" d="M14.247,20.247H6v8.247h8.247ZM7.649,21.9H12.6v4.948H7.649Zm13.2-9.9h1.649v1.649H20.845Z" transform="translate(-2.701 -5.402)" fill="#0a6dca"/>
    <path id="Path_33883" data-name="Path 33883" d="M25.649,6H33.9v8.247H25.649ZM27.3,7.649V12.6h4.948V7.649ZM24,15.9v3.3h1.649v1.649H24v1.649h3.3V19.2h1.649v3.3H30.6V20.845h3.3V19.2H28.948V15.9Zm3.3,3.3H25.649V17.546H27.3Zm6.6,3.3H32.247v1.649h-3.3v1.649H33.9Zm-6.6,3.3V24.143H24v1.649Z" transform="translate(-10.805 -2.701)" fill="#0a6dca"/>
    <path id="Path_33884" data-name="Path 33884" d="M36,25.649h3.3V24H36Z" transform="translate(-16.207 -10.805)" fill="#0a6dca"/>
  </g>
</svg>
