<svg xmlns="http://www.w3.org/2000/svg" xmlns:xlink="http://www.w3.org/1999/xlink" width="55.404" height="56" viewBox="0 0 55.404 56">
  <defs>
    <linearGradient id="linear-gradient" x1="0.501" y1="1" x2="0.501" y2="0.002" gradientUnits="objectBoundingBox">
      <stop offset="0" stop-color="#20b038"/>
      <stop offset="1" stop-color="#60d66a"/>
    </linearGradient>
    <linearGradient id="linear-gradient-2" x1="0.501" y1="1" x2="0.501" y2="0.002" gradientUnits="objectBoundingBox">
      <stop offset="0" stop-color="#f9f9f9"/>
      <stop offset="1" stop-color="#fff"/>
    </linearGradient>
  </defs>
  <g id="WhatsApp-Logo.wine" transform="translate(-31.304 -25.01)">
    <g id="Group_40062" data-name="Group 40062" transform="translate(31.304 25.21)">
      <path id="Path_33932" data-name="Path 33932" d="M574.232-958.831a27.656,27.656,0,0,0,3.682,13.824L574-930.679l14.624-3.845a27.508,27.508,0,0,0,13.182,3.366h.012A27.66,27.66,0,0,0,629.4-958.809a27.52,27.52,0,0,0-8.072-19.562,27.377,27.377,0,0,0-19.514-8.109A27.657,27.657,0,0,0,574.232-958.831Z" transform="translate(-574 986.48)"/>
      <path id="Path_33933" data-name="Path 33933" d="M574.232-958.831a27.656,27.656,0,0,0,3.682,13.824L574-930.679l14.624-3.845a27.508,27.508,0,0,0,13.182,3.366h.012A27.66,27.66,0,0,0,629.4-958.809a27.52,27.52,0,0,0-8.072-19.562,27.377,27.377,0,0,0-19.514-8.109A27.657,27.657,0,0,0,574.232-958.831Z" transform="translate(-574 986.48)" fill="rgba(0,0,0,0.2)"/>
    </g>
    <path id="Path_33934" data-name="Path 33934" d="M.3-516.18a26.549,26.549,0,0,0,3.552,13.3L.077-489.1l14.105-3.7A26.6,26.6,0,0,0,26.9-489.56h.012a26.642,26.642,0,0,0,26.607-26.6,26.432,26.432,0,0,0-7.786-18.818,26.439,26.439,0,0,0-18.821-7.8A26.641,26.641,0,0,0,.3-516.18" transform="translate(32.226 568.751)" fill="url(#linear-gradient)"/>
    <path id="Path_33935" data-name="Path 33935" d="M.3-534.276A27.5,27.5,0,0,0,3.982-520.5L.072-506.223l14.611-3.831A27.542,27.542,0,0,0,27.854-506.7h.012a27.6,27.6,0,0,0,27.562-27.553,27.386,27.386,0,0,0-8.065-19.493,27.391,27.391,0,0,0-19.5-8.081A27.6,27.6,0,0,0,.3-534.276ZM9-521.22l-.545-.866a22.838,22.838,0,0,1-3.5-12.187,22.938,22.938,0,0,1,22.917-22.9,22.759,22.759,0,0,1,16.2,6.716,22.761,22.761,0,0,1,6.7,16.2,22.938,22.938,0,0,1-22.908,22.9h-.009a22.88,22.88,0,0,1-11.66-3.193l-.837-.5L6.69-512.769Z" transform="translate(31.272 586.837)" fill="url(#linear-gradient-2)"/>
    <path id="Path_33936" data-name="Path 33936" d="M177.945,175.818c-.516-1.147-1.059-1.17-1.55-1.19-.4-.017-.861-.016-1.32-.016a2.53,2.53,0,0,0-1.836.862,7.72,7.72,0,0,0-2.411,5.743c0,3.389,2.468,6.663,2.812,7.122s4.764,7.634,11.764,10.395c5.818,2.294,7,1.838,8.264,1.723s4.075-1.666,4.648-3.274a5.754,5.754,0,0,0,.4-3.274c-.172-.287-.631-.459-1.32-.8s-4.075-2.011-4.706-2.24-1.091-.344-1.55.345-1.778,2.24-2.18,2.7-.8.518-1.492.173a18.838,18.838,0,0,1-5.538-3.418A20.752,20.752,0,0,1,178.1,185.9c-.4-.689-.043-1.062.3-1.405.309-.309.689-.8,1.033-1.206a4.72,4.72,0,0,0,.688-1.148,1.268,1.268,0,0,0-.057-1.206c-.172-.344-1.511-3.75-2.123-5.112" transform="translate(-125.696 -134.774)" fill="#fff" fill-rule="evenodd"/>
  </g>
</svg>
